M48
;DRILL file {KiCad 5.0.2+dfsg1-1} date Tue 29 Jan 2019 01:39:25 PM STD
;FORMAT={-:-/ absolute / inch / decimal}
FMAT,2
INCH,TZ
T1C0.0295
T2C0.0315
T3C0.0400
T4C0.0433
T5C0.0512
T6C0.1181
%
G90
G05
T1
X5.55Y-3.4
X5.6Y-3.45
X5.65Y-3.4
X5.85Y-3.4
X5.9Y-3.35
X5.9Y-3.45
T2
X5.8Y-3.6
X5.8Y-3.9
X5.5016Y-3.2
X5.6Y-3.2
X5.65Y-3.6
X5.65Y-3.9
X5.5Y-3.7
X5.5Y-3.7984
X4.1713Y-3.1
X4.25Y-3.1
X5.65Y-2.75
X5.65Y-3.05
X5.8Y-2.75
X5.8Y-3.05
X3.9713Y-3.5
X4.05Y-3.5
X5.8016Y-3.2
X5.9Y-3.2
X5.5Y-2.75
X5.5Y-3.05
T3
X4.45Y-2.9182
X4.45Y-3.0182
X4.45Y-3.1182
X4.45Y-3.2182
X4.45Y-3.3182
X4.45Y-3.4182
X4.45Y-3.5182
X4.45Y-3.6182
X5.35Y-2.9182
X5.35Y-3.0182
X5.35Y-3.1182
X5.35Y-3.2182
X5.35Y-3.3182
X5.35Y-3.4182
X5.35Y-3.5182
X5.35Y-3.6182
T4
X4.05Y-2.85
X4.15Y-2.85
X4.25Y-2.85
T5
X4.05Y-3.85
X4.25Y-3.85
T6
X3.8Y-2.75
X3.8Y-3.85
X6.Y-2.75
X6.Y-3.85
T0
M30
