G04 #@! TF.GenerationSoftware,KiCad,Pcbnew,5.0.2+dfsg1-1*
G04 #@! TF.CreationDate,2019-01-29T13:39:18+01:00*
G04 #@! TF.ProjectId,wifi_noise_gen,77696669-5f6e-46f6-9973-655f67656e2e,rev?*
G04 #@! TF.SameCoordinates,Original*
G04 #@! TF.FileFunction,Copper,L1,Top*
G04 #@! TF.FilePolarity,Positive*
%FSLAX46Y46*%
G04 Gerber Fmt 4.6, Leading zero omitted, Abs format (unit mm)*
G04 Created by KiCad (PCBNEW 5.0.2+dfsg1-1) date Tue 29 Jan 2019 01:39:18 PM STD*
%MOMM*%
%LPD*%
G01*
G04 APERTURE LIST*
G04 #@! TA.AperFunction,ComponentPad*
%ADD10C,1.800000*%
G04 #@! TD*
G04 #@! TA.AperFunction,ComponentPad*
%ADD11C,1.600000*%
G04 #@! TD*
G04 #@! TA.AperFunction,ComponentPad*
%ADD12R,1.600000X1.600000*%
G04 #@! TD*
G04 #@! TA.AperFunction,ComponentPad*
%ADD13R,2.600000X2.600000*%
G04 #@! TD*
G04 #@! TA.AperFunction,ComponentPad*
%ADD14C,2.600000*%
G04 #@! TD*
G04 #@! TA.AperFunction,ComponentPad*
%ADD15R,1.300000X1.300000*%
G04 #@! TD*
G04 #@! TA.AperFunction,ComponentPad*
%ADD16C,1.300000*%
G04 #@! TD*
G04 #@! TA.AperFunction,ComponentPad*
%ADD17O,1.600000X1.600000*%
G04 #@! TD*
G04 #@! TA.AperFunction,ComponentPad*
%ADD18R,1.905000X2.000000*%
G04 #@! TD*
G04 #@! TA.AperFunction,ComponentPad*
%ADD19O,1.905000X2.000000*%
G04 #@! TD*
G04 #@! TA.AperFunction,ViaPad*
%ADD20C,4.000000*%
G04 #@! TD*
G04 #@! TA.AperFunction,Conductor*
%ADD21C,1.250000*%
G04 #@! TD*
G04 #@! TA.AperFunction,Conductor*
%ADD22C,1.000000*%
G04 #@! TD*
G04 #@! TA.AperFunction,Conductor*
%ADD23C,0.500000*%
G04 #@! TD*
G04 APERTURE END LIST*
D10*
G04 #@! TO.P,U2,8*
G04 #@! TO.N,Net-(U2-Pad8)*
X113030000Y-74121735D03*
G04 #@! TO.P,U2,7*
G04 #@! TO.N,Net-(U2-Pad7)*
X113030000Y-76661735D03*
G04 #@! TO.P,U2,6*
G04 #@! TO.N,Net-(U2-Pad6)*
X113030000Y-79201735D03*
G04 #@! TO.P,U2,5*
G04 #@! TO.N,Net-(U2-Pad5)*
X113030000Y-81741735D03*
G04 #@! TO.P,U2,4*
G04 #@! TO.N,Net-(U2-Pad4)*
X113030000Y-84281735D03*
G04 #@! TO.P,U2,3*
G04 #@! TO.N,Net-(U2-Pad3)*
X113030000Y-86821735D03*
G04 #@! TO.P,U2,2*
G04 #@! TO.N,GND*
X113030000Y-89361735D03*
G04 #@! TO.P,U2,1*
G04 #@! TO.N,+5V*
X113030000Y-91901735D03*
G04 #@! TO.P,U2,16*
G04 #@! TO.N,Net-(U2-Pad16)*
X135890000Y-91901735D03*
G04 #@! TO.P,U2,15*
G04 #@! TO.N,Net-(U2-Pad15)*
X135890000Y-89361735D03*
G04 #@! TO.P,U2,14*
G04 #@! TO.N,Net-(U2-Pad14)*
X135890000Y-86821735D03*
G04 #@! TO.P,U2,13*
G04 #@! TO.N,Net-(U2-Pad13)*
X135890000Y-84281735D03*
G04 #@! TO.P,U2,12*
G04 #@! TO.N,Net-(U2-Pad12)*
X135890000Y-81741735D03*
G04 #@! TO.P,U2,11*
G04 #@! TO.N,Net-(U2-Pad11)*
X135890000Y-79201735D03*
G04 #@! TO.P,U2,10*
G04 #@! TO.N,Vnoise*
X135890000Y-76661735D03*
G04 #@! TO.P,U2,9*
G04 #@! TO.N,Net-(U2-Pad9)*
X135890000Y-74121735D03*
G04 #@! TD*
D11*
G04 #@! TO.P,C1,1*
G04 #@! TO.N,+12V*
X149860000Y-81280000D03*
G04 #@! TO.P,C1,2*
G04 #@! TO.N,Net-(C1-Pad2)*
X147360000Y-81280000D03*
G04 #@! TD*
G04 #@! TO.P,C2,1*
G04 #@! TO.N,Net-(C2-Pad1)*
X139700000Y-93980000D03*
G04 #@! TO.P,C2,2*
G04 #@! TO.N,GND*
X139700000Y-96480000D03*
G04 #@! TD*
G04 #@! TO.P,C3,2*
G04 #@! TO.N,Net-(C3-Pad2)*
X139740000Y-81280000D03*
G04 #@! TO.P,C3,1*
G04 #@! TO.N,Vnoise*
X142240000Y-81280000D03*
G04 #@! TD*
G04 #@! TO.P,CP1,2*
G04 #@! TO.N,GND*
X100870000Y-88900000D03*
D12*
G04 #@! TO.P,CP1,1*
G04 #@! TO.N,+12V*
X102870000Y-88900000D03*
G04 #@! TD*
G04 #@! TO.P,CP2,1*
G04 #@! TO.N,+5V*
X107950000Y-78740000D03*
D11*
G04 #@! TO.P,CP2,2*
G04 #@! TO.N,GND*
X105950000Y-78740000D03*
G04 #@! TD*
D13*
G04 #@! TO.P,J1,1*
G04 #@! TO.N,GND*
X102870000Y-97790000D03*
D14*
G04 #@! TO.P,J1,2*
G04 #@! TO.N,+12V*
X107950000Y-97790000D03*
G04 #@! TD*
D15*
G04 #@! TO.P,Q1,1*
G04 #@! TO.N,Net-(Q1-Pad1)*
X149860000Y-87630000D03*
D16*
G04 #@! TO.P,Q1,3*
G04 #@! TO.N,Net-(C1-Pad2)*
X149860000Y-85090000D03*
G04 #@! TO.P,Q1,2*
G04 #@! TO.N,Net-(Q1-Pad2)*
X148590000Y-86360000D03*
G04 #@! TD*
G04 #@! TO.P,Q2,2*
G04 #@! TO.N,Net-(C3-Pad2)*
X142240000Y-87630000D03*
G04 #@! TO.P,Q2,3*
G04 #@! TO.N,Net-(C2-Pad1)*
X140970000Y-86360000D03*
D15*
G04 #@! TO.P,Q2,1*
G04 #@! TO.N,Net-(Q1-Pad1)*
X143510000Y-86360000D03*
G04 #@! TD*
D11*
G04 #@! TO.P,R1,1*
G04 #@! TO.N,+12V*
X147320000Y-69850000D03*
D17*
G04 #@! TO.P,R1,2*
G04 #@! TO.N,Net-(C1-Pad2)*
X147320000Y-77470000D03*
G04 #@! TD*
G04 #@! TO.P,R2,2*
G04 #@! TO.N,Net-(C3-Pad2)*
X147320000Y-91440000D03*
D11*
G04 #@! TO.P,R2,1*
G04 #@! TO.N,+12V*
X147320000Y-99060000D03*
G04 #@! TD*
G04 #@! TO.P,R3,1*
G04 #@! TO.N,Net-(C2-Pad1)*
X143510000Y-91440000D03*
D17*
G04 #@! TO.P,R3,2*
G04 #@! TO.N,GND*
X143510000Y-99060000D03*
G04 #@! TD*
G04 #@! TO.P,R4,2*
G04 #@! TO.N,Vnoise*
X143510000Y-77470000D03*
D11*
G04 #@! TO.P,R4,1*
G04 #@! TO.N,+12V*
X143510000Y-69850000D03*
G04 #@! TD*
G04 #@! TO.P,R5,1*
G04 #@! TO.N,Vnoise*
X139700000Y-77470000D03*
D17*
G04 #@! TO.P,R5,2*
G04 #@! TO.N,GND*
X139700000Y-69850000D03*
G04 #@! TD*
D18*
G04 #@! TO.P,U1,1*
G04 #@! TO.N,+12V*
X102870000Y-72390000D03*
D19*
G04 #@! TO.P,U1,2*
G04 #@! TO.N,GND*
X105410000Y-72390000D03*
G04 #@! TO.P,U1,3*
G04 #@! TO.N,+5V*
X107950000Y-72390000D03*
G04 #@! TD*
D20*
G04 #@! TO.N,GND*
X152400000Y-69850000D03*
X96520000Y-69850000D03*
X96520000Y-97790000D03*
X152400000Y-97790000D03*
G04 #@! TD*
D21*
G04 #@! TO.N,Net-(C1-Pad2)*
X147360000Y-77510000D02*
X147320000Y-77470000D01*
D22*
X147320000Y-81240000D02*
X147360000Y-81280000D01*
X147320000Y-77470000D02*
X147320000Y-81240000D01*
X147360000Y-82590000D02*
X149860000Y-85090000D01*
X147360000Y-81280000D02*
X147360000Y-82590000D01*
G04 #@! TO.N,Net-(C2-Pad1)*
X139700000Y-87630000D02*
X140970000Y-86360000D01*
X139700000Y-93980000D02*
X139700000Y-87630000D01*
X142240000Y-91440000D02*
X139700000Y-93980000D01*
X143510000Y-91440000D02*
X142240000Y-91440000D01*
G04 #@! TO.N,Net-(C3-Pad2)*
X144780000Y-88900000D02*
X147320000Y-91440000D01*
X142240000Y-87630000D02*
X143510000Y-88900000D01*
X143510000Y-88900000D02*
X144780000Y-88900000D01*
G04 #@! TO.N,Vnoise*
X138891735Y-76661735D02*
X139700000Y-77470000D01*
X135890000Y-76661735D02*
X138891735Y-76661735D01*
X139700000Y-77470000D02*
X143510000Y-77470000D01*
X143510000Y-80010000D02*
X142240000Y-81280000D01*
X143510000Y-77470000D02*
X143510000Y-80010000D01*
G04 #@! TO.N,+5V*
X107950000Y-90631735D02*
X109220000Y-91901735D01*
X109220000Y-91901735D02*
X112040194Y-91901735D01*
X107950000Y-72390000D02*
X107950000Y-78740000D01*
X107950000Y-78740000D02*
X107950000Y-90631735D01*
G04 #@! TO.N,Net-(Q1-Pad1)*
X149860000Y-87630000D02*
X148590000Y-88900000D01*
X148590000Y-88900000D02*
X147320000Y-88900000D01*
X144780000Y-86360000D02*
X143510000Y-86360000D01*
X147320000Y-88900000D02*
X144780000Y-86360000D01*
G04 #@! TD*
D23*
G04 #@! TO.N,+12V*
G36*
X115320000Y-87630000D02*
X115339030Y-87725671D01*
X115393223Y-87806777D01*
X115474329Y-87860970D01*
X115570000Y-87880000D01*
X133350000Y-87880000D01*
X133445671Y-87860970D01*
X133526777Y-87806777D01*
X133580970Y-87725671D01*
X133600000Y-87630000D01*
X133600000Y-73773638D01*
X134140000Y-73773638D01*
X134140000Y-74469832D01*
X134406421Y-75113031D01*
X134685125Y-75391735D01*
X134406421Y-75670439D01*
X134140000Y-76313638D01*
X134140000Y-77009832D01*
X134406421Y-77653031D01*
X134685125Y-77931735D01*
X134406421Y-78210439D01*
X134140000Y-78853638D01*
X134140000Y-79549832D01*
X134406421Y-80193031D01*
X134685125Y-80471735D01*
X134406421Y-80750439D01*
X134140000Y-81393638D01*
X134140000Y-82089832D01*
X134406421Y-82733031D01*
X134685125Y-83011735D01*
X134406421Y-83290439D01*
X134140000Y-83933638D01*
X134140000Y-84629832D01*
X134406421Y-85273031D01*
X134685125Y-85551735D01*
X134406421Y-85830439D01*
X134140000Y-86473638D01*
X134140000Y-87169832D01*
X134406421Y-87813031D01*
X134685125Y-88091735D01*
X134406421Y-88370439D01*
X134140000Y-89013638D01*
X134140000Y-89709832D01*
X134406421Y-90353031D01*
X134685125Y-90631735D01*
X134406421Y-90910439D01*
X134140000Y-91553638D01*
X134140000Y-92249832D01*
X134406421Y-92893031D01*
X134898704Y-93385314D01*
X135541903Y-93651735D01*
X136238097Y-93651735D01*
X136881296Y-93385314D01*
X137373579Y-92893031D01*
X137640000Y-92249832D01*
X137640000Y-91553638D01*
X137373579Y-90910439D01*
X137094875Y-90631735D01*
X137373579Y-90353031D01*
X137640000Y-89709832D01*
X137640000Y-89013638D01*
X137373579Y-88370439D01*
X137094875Y-88091735D01*
X137373579Y-87813031D01*
X137640000Y-87169832D01*
X137640000Y-86473638D01*
X137373579Y-85830439D01*
X137094875Y-85551735D01*
X137373579Y-85273031D01*
X137640000Y-84629832D01*
X137640000Y-83933638D01*
X137373579Y-83290439D01*
X137094875Y-83011735D01*
X137373579Y-82733031D01*
X137640000Y-82089832D01*
X137640000Y-81393638D01*
X137373579Y-80750439D01*
X137094875Y-80471735D01*
X137373579Y-80193031D01*
X137640000Y-79549832D01*
X137640000Y-78853638D01*
X137373579Y-78210439D01*
X137174875Y-78011735D01*
X138138447Y-78011735D01*
X138301198Y-78404650D01*
X138765350Y-78868802D01*
X139371795Y-79120000D01*
X140028205Y-79120000D01*
X140634650Y-78868802D01*
X140683452Y-78820000D01*
X142160001Y-78820000D01*
X142160001Y-79450811D01*
X141980811Y-79630000D01*
X141911795Y-79630000D01*
X141305350Y-79881198D01*
X140990000Y-80196548D01*
X140674650Y-79881198D01*
X140068205Y-79630000D01*
X139411795Y-79630000D01*
X138805350Y-79881198D01*
X138341198Y-80345350D01*
X138090000Y-80951795D01*
X138090000Y-81608205D01*
X138341198Y-82214650D01*
X138805350Y-82678802D01*
X139411795Y-82930000D01*
X140068205Y-82930000D01*
X140674650Y-82678802D01*
X140990000Y-82363452D01*
X141305350Y-82678802D01*
X141911795Y-82930000D01*
X142568205Y-82930000D01*
X143174650Y-82678802D01*
X143638802Y-82214650D01*
X143890000Y-81608205D01*
X143890000Y-81539189D01*
X144370576Y-81058613D01*
X144483296Y-80983296D01*
X144781672Y-80536744D01*
X144860000Y-80142963D01*
X144860000Y-80142962D01*
X144886448Y-80010001D01*
X144860000Y-79877039D01*
X144860000Y-78419503D01*
X145064266Y-78113798D01*
X145192325Y-77470000D01*
X145064266Y-76826202D01*
X144699583Y-76280417D01*
X144153798Y-75915734D01*
X143672509Y-75820000D01*
X143347491Y-75820000D01*
X142866202Y-75915734D01*
X142560497Y-76120000D01*
X140683452Y-76120000D01*
X140634650Y-76071198D01*
X140028205Y-75820000D01*
X139959188Y-75820000D01*
X139940350Y-75801162D01*
X139865031Y-75688439D01*
X139418479Y-75390063D01*
X139024698Y-75311735D01*
X138891735Y-75285287D01*
X138758772Y-75311735D01*
X137174875Y-75311735D01*
X137373579Y-75113031D01*
X137640000Y-74469832D01*
X137640000Y-73773638D01*
X137373579Y-73130439D01*
X136881296Y-72638156D01*
X136238097Y-72371735D01*
X135541903Y-72371735D01*
X134898704Y-72638156D01*
X134406421Y-73130439D01*
X134140000Y-73773638D01*
X133600000Y-73773638D01*
X133600000Y-69850000D01*
X138017675Y-69850000D01*
X138145734Y-70493798D01*
X138510417Y-71039583D01*
X139056202Y-71404266D01*
X139537491Y-71500000D01*
X139862509Y-71500000D01*
X140343798Y-71404266D01*
X140889583Y-71039583D01*
X141254266Y-70493798D01*
X141382325Y-69850000D01*
X141269562Y-69283100D01*
X149550000Y-69283100D01*
X149550000Y-70416900D01*
X149983886Y-71464395D01*
X150785605Y-72266114D01*
X151833100Y-72700000D01*
X152966900Y-72700000D01*
X154014395Y-72266114D01*
X154816114Y-71464395D01*
X155250000Y-70416900D01*
X155250000Y-69283100D01*
X154816114Y-68235605D01*
X154014395Y-67433886D01*
X152966900Y-67000000D01*
X151833100Y-67000000D01*
X150785605Y-67433886D01*
X149983886Y-68235605D01*
X149550000Y-69283100D01*
X141269562Y-69283100D01*
X141254266Y-69206202D01*
X140889583Y-68660417D01*
X140343798Y-68295734D01*
X139862509Y-68200000D01*
X139537491Y-68200000D01*
X139056202Y-68295734D01*
X138510417Y-68660417D01*
X138145734Y-69206202D01*
X138017675Y-69850000D01*
X133600000Y-69850000D01*
X133600000Y-66965000D01*
X155285000Y-66965000D01*
X155285001Y-100675000D01*
X143848466Y-100675000D01*
X144153798Y-100614266D01*
X144699583Y-100249583D01*
X145064266Y-99703798D01*
X145192325Y-99060000D01*
X145064266Y-98416202D01*
X144699583Y-97870417D01*
X144153798Y-97505734D01*
X143672509Y-97410000D01*
X143347491Y-97410000D01*
X142866202Y-97505734D01*
X142320417Y-97870417D01*
X141955734Y-98416202D01*
X141827675Y-99060000D01*
X141955734Y-99703798D01*
X142320417Y-100249583D01*
X142866202Y-100614266D01*
X143171534Y-100675000D01*
X93635000Y-100675000D01*
X93635000Y-97223100D01*
X93670000Y-97223100D01*
X93670000Y-98356900D01*
X94103886Y-99404395D01*
X94905605Y-100206114D01*
X95953100Y-100640000D01*
X97086900Y-100640000D01*
X98134395Y-100206114D01*
X98936114Y-99404395D01*
X99370000Y-98356900D01*
X99370000Y-97223100D01*
X99066341Y-96490000D01*
X100703348Y-96490000D01*
X100703348Y-99090000D01*
X100769318Y-99421653D01*
X100957184Y-99702816D01*
X101238347Y-99890682D01*
X101570000Y-99956652D01*
X104170000Y-99956652D01*
X104501653Y-99890682D01*
X104782816Y-99702816D01*
X104970682Y-99421653D01*
X105036652Y-99090000D01*
X105036652Y-96490000D01*
X104970682Y-96158347D01*
X104782816Y-95877184D01*
X104501653Y-95689318D01*
X104170000Y-95623348D01*
X101570000Y-95623348D01*
X101238347Y-95689318D01*
X100957184Y-95877184D01*
X100769318Y-96158347D01*
X100703348Y-96490000D01*
X99066341Y-96490000D01*
X98936114Y-96175605D01*
X98134395Y-95373886D01*
X97086900Y-94940000D01*
X95953100Y-94940000D01*
X94905605Y-95373886D01*
X94103886Y-96175605D01*
X93670000Y-97223100D01*
X93635000Y-97223100D01*
X93635000Y-93651795D01*
X138050000Y-93651795D01*
X138050000Y-94308205D01*
X138301198Y-94914650D01*
X138616548Y-95230000D01*
X138301198Y-95545350D01*
X138050000Y-96151795D01*
X138050000Y-96808205D01*
X138301198Y-97414650D01*
X138765350Y-97878802D01*
X139371795Y-98130000D01*
X140028205Y-98130000D01*
X140634650Y-97878802D01*
X141098802Y-97414650D01*
X141178144Y-97223100D01*
X149550000Y-97223100D01*
X149550000Y-98356900D01*
X149983886Y-99404395D01*
X150785605Y-100206114D01*
X151833100Y-100640000D01*
X152966900Y-100640000D01*
X154014395Y-100206114D01*
X154816114Y-99404395D01*
X155250000Y-98356900D01*
X155250000Y-97223100D01*
X154816114Y-96175605D01*
X154014395Y-95373886D01*
X152966900Y-94940000D01*
X151833100Y-94940000D01*
X150785605Y-95373886D01*
X149983886Y-96175605D01*
X149550000Y-97223100D01*
X141178144Y-97223100D01*
X141350000Y-96808205D01*
X141350000Y-96151795D01*
X141098802Y-95545350D01*
X140783452Y-95230000D01*
X141098802Y-94914650D01*
X141350000Y-94308205D01*
X141350000Y-94239188D01*
X142699119Y-92890069D01*
X143181795Y-93090000D01*
X143838205Y-93090000D01*
X144444650Y-92838802D01*
X144908802Y-92374650D01*
X145160000Y-91768205D01*
X145160000Y-91189188D01*
X145694006Y-91723194D01*
X145765734Y-92083798D01*
X146130417Y-92629583D01*
X146676202Y-92994266D01*
X147157491Y-93090000D01*
X147482509Y-93090000D01*
X147963798Y-92994266D01*
X148509583Y-92629583D01*
X148874266Y-92083798D01*
X149002325Y-91440000D01*
X148874266Y-90796202D01*
X148517316Y-90261990D01*
X148590000Y-90276448D01*
X148722963Y-90250000D01*
X149116744Y-90171672D01*
X149563296Y-89873296D01*
X149638615Y-89760573D01*
X150252537Y-89146652D01*
X150510000Y-89146652D01*
X150841653Y-89080682D01*
X151122816Y-88892816D01*
X151310682Y-88611653D01*
X151376652Y-88280000D01*
X151376652Y-86980000D01*
X151310682Y-86648347D01*
X151122816Y-86367184D01*
X150871836Y-86199485D01*
X151131639Y-85939682D01*
X151360000Y-85388369D01*
X151360000Y-84791631D01*
X151131639Y-84240318D01*
X150709682Y-83818361D01*
X150347550Y-83668361D01*
X148798353Y-82119165D01*
X149010000Y-81608205D01*
X149010000Y-80951795D01*
X148758802Y-80345350D01*
X148670000Y-80256548D01*
X148670000Y-78419503D01*
X148874266Y-78113798D01*
X149002325Y-77470000D01*
X148874266Y-76826202D01*
X148509583Y-76280417D01*
X147963798Y-75915734D01*
X147482509Y-75820000D01*
X147157491Y-75820000D01*
X146676202Y-75915734D01*
X146130417Y-76280417D01*
X145765734Y-76826202D01*
X145637675Y-77470000D01*
X145765734Y-78113798D01*
X145970000Y-78419503D01*
X145970001Y-80336547D01*
X145961198Y-80345350D01*
X145710000Y-80951795D01*
X145710000Y-81608205D01*
X145961198Y-82214650D01*
X146010000Y-82263452D01*
X146010000Y-82457037D01*
X145983552Y-82590000D01*
X146010000Y-82722963D01*
X146088328Y-83116744D01*
X146386705Y-83563296D01*
X146499425Y-83638613D01*
X147888000Y-85027189D01*
X147740318Y-85088361D01*
X147318361Y-85510318D01*
X147090000Y-86061631D01*
X147090000Y-86658369D01*
X147162438Y-86833250D01*
X145828615Y-85499427D01*
X145753296Y-85386704D01*
X145306744Y-85088328D01*
X144912963Y-85010000D01*
X144780000Y-84983552D01*
X144647037Y-85010000D01*
X144642335Y-85010000D01*
X144491653Y-84909318D01*
X144160000Y-84843348D01*
X142860000Y-84843348D01*
X142528347Y-84909318D01*
X142247184Y-85097184D01*
X142079485Y-85348164D01*
X141819682Y-85088361D01*
X141268369Y-84860000D01*
X140671631Y-84860000D01*
X140120318Y-85088361D01*
X139698361Y-85510318D01*
X139548361Y-85872450D01*
X138839425Y-86581387D01*
X138726705Y-86656704D01*
X138651388Y-86769424D01*
X138651387Y-86769425D01*
X138428328Y-87103257D01*
X138323552Y-87630000D01*
X138350001Y-87762968D01*
X138350000Y-92996548D01*
X138301198Y-93045350D01*
X138050000Y-93651795D01*
X93635000Y-93651795D01*
X93635000Y-88571795D01*
X99220000Y-88571795D01*
X99220000Y-89228205D01*
X99471198Y-89834650D01*
X99935350Y-90298802D01*
X100541795Y-90550000D01*
X101198205Y-90550000D01*
X101804650Y-90298802D01*
X102268802Y-89834650D01*
X102520000Y-89228205D01*
X102520000Y-88571795D01*
X102268802Y-87965350D01*
X101804650Y-87501198D01*
X101198205Y-87250000D01*
X100541795Y-87250000D01*
X99935350Y-87501198D01*
X99471198Y-87965350D01*
X99220000Y-88571795D01*
X93635000Y-88571795D01*
X93635000Y-69283100D01*
X93670000Y-69283100D01*
X93670000Y-70416900D01*
X94103886Y-71464395D01*
X94905605Y-72266114D01*
X95953100Y-72700000D01*
X97086900Y-72700000D01*
X98134395Y-72266114D01*
X98235539Y-72164970D01*
X103607500Y-72164970D01*
X103607500Y-72615031D01*
X103712082Y-73140801D01*
X104110470Y-73737030D01*
X104706700Y-74135418D01*
X105410000Y-74275313D01*
X106113301Y-74135418D01*
X106600000Y-73810216D01*
X106600001Y-77223292D01*
X106278205Y-77090000D01*
X105621795Y-77090000D01*
X105015350Y-77341198D01*
X104551198Y-77805350D01*
X104300000Y-78411795D01*
X104300000Y-79068205D01*
X104551198Y-79674650D01*
X105015350Y-80138802D01*
X105621795Y-80390000D01*
X106278205Y-80390000D01*
X106600000Y-80256708D01*
X106600001Y-90498767D01*
X106573552Y-90631735D01*
X106678328Y-91158478D01*
X106866436Y-91440001D01*
X106976705Y-91605031D01*
X107089425Y-91680348D01*
X108171387Y-92762311D01*
X108246704Y-92875031D01*
X108693256Y-93173407D01*
X109087037Y-93251735D01*
X109087038Y-93251735D01*
X109219999Y-93278183D01*
X109352961Y-93251735D01*
X111905125Y-93251735D01*
X112038704Y-93385314D01*
X112681903Y-93651735D01*
X113378097Y-93651735D01*
X114021296Y-93385314D01*
X114513579Y-92893031D01*
X114780000Y-92249832D01*
X114780000Y-91553638D01*
X114513579Y-90910439D01*
X114234875Y-90631735D01*
X114513579Y-90353031D01*
X114780000Y-89709832D01*
X114780000Y-89013638D01*
X114513579Y-88370439D01*
X114234875Y-88091735D01*
X114513579Y-87813031D01*
X114780000Y-87169832D01*
X114780000Y-86473638D01*
X114513579Y-85830439D01*
X114234875Y-85551735D01*
X114513579Y-85273031D01*
X114780000Y-84629832D01*
X114780000Y-83933638D01*
X114513579Y-83290439D01*
X114234875Y-83011735D01*
X114513579Y-82733031D01*
X114780000Y-82089832D01*
X114780000Y-81393638D01*
X114513579Y-80750439D01*
X114234875Y-80471735D01*
X114513579Y-80193031D01*
X114780000Y-79549832D01*
X114780000Y-78853638D01*
X114513579Y-78210439D01*
X114234875Y-77931735D01*
X114513579Y-77653031D01*
X114780000Y-77009832D01*
X114780000Y-76313638D01*
X114513579Y-75670439D01*
X114234875Y-75391735D01*
X114513579Y-75113031D01*
X114780000Y-74469832D01*
X114780000Y-73773638D01*
X114513579Y-73130439D01*
X114021296Y-72638156D01*
X113378097Y-72371735D01*
X112681903Y-72371735D01*
X112038704Y-72638156D01*
X111546421Y-73130439D01*
X111280000Y-73773638D01*
X111280000Y-74469832D01*
X111546421Y-75113031D01*
X111825125Y-75391735D01*
X111546421Y-75670439D01*
X111280000Y-76313638D01*
X111280000Y-77009832D01*
X111546421Y-77653031D01*
X111825125Y-77931735D01*
X111546421Y-78210439D01*
X111280000Y-78853638D01*
X111280000Y-79549832D01*
X111546421Y-80193031D01*
X111825125Y-80471735D01*
X111546421Y-80750439D01*
X111280000Y-81393638D01*
X111280000Y-82089832D01*
X111546421Y-82733031D01*
X111825125Y-83011735D01*
X111546421Y-83290439D01*
X111280000Y-83933638D01*
X111280000Y-84629832D01*
X111546421Y-85273031D01*
X111825125Y-85551735D01*
X111546421Y-85830439D01*
X111280000Y-86473638D01*
X111280000Y-87169832D01*
X111546421Y-87813031D01*
X111825125Y-88091735D01*
X111546421Y-88370439D01*
X111280000Y-89013638D01*
X111280000Y-89709832D01*
X111546421Y-90353031D01*
X111745125Y-90551735D01*
X109779189Y-90551735D01*
X109300000Y-90072547D01*
X109300000Y-80194788D01*
X109362816Y-80152816D01*
X109550682Y-79871653D01*
X109616652Y-79540000D01*
X109616652Y-77940000D01*
X109550682Y-77608347D01*
X109362816Y-77327184D01*
X109300000Y-77285212D01*
X109300000Y-73661496D01*
X109647918Y-73140800D01*
X109752500Y-72615030D01*
X109752500Y-72164969D01*
X109647918Y-71639199D01*
X109249530Y-71042970D01*
X108653300Y-70644582D01*
X107950000Y-70504687D01*
X107246699Y-70644582D01*
X106680000Y-71023239D01*
X106113300Y-70644582D01*
X105410000Y-70504687D01*
X104706699Y-70644582D01*
X104110470Y-71042970D01*
X103712082Y-71639200D01*
X103607500Y-72164970D01*
X98235539Y-72164970D01*
X98936114Y-71464395D01*
X99370000Y-70416900D01*
X99370000Y-69283100D01*
X98936114Y-68235605D01*
X98134395Y-67433886D01*
X97086900Y-67000000D01*
X95953100Y-67000000D01*
X94905605Y-67433886D01*
X94103886Y-68235605D01*
X93670000Y-69283100D01*
X93635000Y-69283100D01*
X93635000Y-66965000D01*
X115320000Y-66965000D01*
X115320000Y-87630000D01*
X115320000Y-87630000D01*
G37*
X115320000Y-87630000D02*
X115339030Y-87725671D01*
X115393223Y-87806777D01*
X115474329Y-87860970D01*
X115570000Y-87880000D01*
X133350000Y-87880000D01*
X133445671Y-87860970D01*
X133526777Y-87806777D01*
X133580970Y-87725671D01*
X133600000Y-87630000D01*
X133600000Y-73773638D01*
X134140000Y-73773638D01*
X134140000Y-74469832D01*
X134406421Y-75113031D01*
X134685125Y-75391735D01*
X134406421Y-75670439D01*
X134140000Y-76313638D01*
X134140000Y-77009832D01*
X134406421Y-77653031D01*
X134685125Y-77931735D01*
X134406421Y-78210439D01*
X134140000Y-78853638D01*
X134140000Y-79549832D01*
X134406421Y-80193031D01*
X134685125Y-80471735D01*
X134406421Y-80750439D01*
X134140000Y-81393638D01*
X134140000Y-82089832D01*
X134406421Y-82733031D01*
X134685125Y-83011735D01*
X134406421Y-83290439D01*
X134140000Y-83933638D01*
X134140000Y-84629832D01*
X134406421Y-85273031D01*
X134685125Y-85551735D01*
X134406421Y-85830439D01*
X134140000Y-86473638D01*
X134140000Y-87169832D01*
X134406421Y-87813031D01*
X134685125Y-88091735D01*
X134406421Y-88370439D01*
X134140000Y-89013638D01*
X134140000Y-89709832D01*
X134406421Y-90353031D01*
X134685125Y-90631735D01*
X134406421Y-90910439D01*
X134140000Y-91553638D01*
X134140000Y-92249832D01*
X134406421Y-92893031D01*
X134898704Y-93385314D01*
X135541903Y-93651735D01*
X136238097Y-93651735D01*
X136881296Y-93385314D01*
X137373579Y-92893031D01*
X137640000Y-92249832D01*
X137640000Y-91553638D01*
X137373579Y-90910439D01*
X137094875Y-90631735D01*
X137373579Y-90353031D01*
X137640000Y-89709832D01*
X137640000Y-89013638D01*
X137373579Y-88370439D01*
X137094875Y-88091735D01*
X137373579Y-87813031D01*
X137640000Y-87169832D01*
X137640000Y-86473638D01*
X137373579Y-85830439D01*
X137094875Y-85551735D01*
X137373579Y-85273031D01*
X137640000Y-84629832D01*
X137640000Y-83933638D01*
X137373579Y-83290439D01*
X137094875Y-83011735D01*
X137373579Y-82733031D01*
X137640000Y-82089832D01*
X137640000Y-81393638D01*
X137373579Y-80750439D01*
X137094875Y-80471735D01*
X137373579Y-80193031D01*
X137640000Y-79549832D01*
X137640000Y-78853638D01*
X137373579Y-78210439D01*
X137174875Y-78011735D01*
X138138447Y-78011735D01*
X138301198Y-78404650D01*
X138765350Y-78868802D01*
X139371795Y-79120000D01*
X140028205Y-79120000D01*
X140634650Y-78868802D01*
X140683452Y-78820000D01*
X142160001Y-78820000D01*
X142160001Y-79450811D01*
X141980811Y-79630000D01*
X141911795Y-79630000D01*
X141305350Y-79881198D01*
X140990000Y-80196548D01*
X140674650Y-79881198D01*
X140068205Y-79630000D01*
X139411795Y-79630000D01*
X138805350Y-79881198D01*
X138341198Y-80345350D01*
X138090000Y-80951795D01*
X138090000Y-81608205D01*
X138341198Y-82214650D01*
X138805350Y-82678802D01*
X139411795Y-82930000D01*
X140068205Y-82930000D01*
X140674650Y-82678802D01*
X140990000Y-82363452D01*
X141305350Y-82678802D01*
X141911795Y-82930000D01*
X142568205Y-82930000D01*
X143174650Y-82678802D01*
X143638802Y-82214650D01*
X143890000Y-81608205D01*
X143890000Y-81539189D01*
X144370576Y-81058613D01*
X144483296Y-80983296D01*
X144781672Y-80536744D01*
X144860000Y-80142963D01*
X144860000Y-80142962D01*
X144886448Y-80010001D01*
X144860000Y-79877039D01*
X144860000Y-78419503D01*
X145064266Y-78113798D01*
X145192325Y-77470000D01*
X145064266Y-76826202D01*
X144699583Y-76280417D01*
X144153798Y-75915734D01*
X143672509Y-75820000D01*
X143347491Y-75820000D01*
X142866202Y-75915734D01*
X142560497Y-76120000D01*
X140683452Y-76120000D01*
X140634650Y-76071198D01*
X140028205Y-75820000D01*
X139959188Y-75820000D01*
X139940350Y-75801162D01*
X139865031Y-75688439D01*
X139418479Y-75390063D01*
X139024698Y-75311735D01*
X138891735Y-75285287D01*
X138758772Y-75311735D01*
X137174875Y-75311735D01*
X137373579Y-75113031D01*
X137640000Y-74469832D01*
X137640000Y-73773638D01*
X137373579Y-73130439D01*
X136881296Y-72638156D01*
X136238097Y-72371735D01*
X135541903Y-72371735D01*
X134898704Y-72638156D01*
X134406421Y-73130439D01*
X134140000Y-73773638D01*
X133600000Y-73773638D01*
X133600000Y-69850000D01*
X138017675Y-69850000D01*
X138145734Y-70493798D01*
X138510417Y-71039583D01*
X139056202Y-71404266D01*
X139537491Y-71500000D01*
X139862509Y-71500000D01*
X140343798Y-71404266D01*
X140889583Y-71039583D01*
X141254266Y-70493798D01*
X141382325Y-69850000D01*
X141269562Y-69283100D01*
X149550000Y-69283100D01*
X149550000Y-70416900D01*
X149983886Y-71464395D01*
X150785605Y-72266114D01*
X151833100Y-72700000D01*
X152966900Y-72700000D01*
X154014395Y-72266114D01*
X154816114Y-71464395D01*
X155250000Y-70416900D01*
X155250000Y-69283100D01*
X154816114Y-68235605D01*
X154014395Y-67433886D01*
X152966900Y-67000000D01*
X151833100Y-67000000D01*
X150785605Y-67433886D01*
X149983886Y-68235605D01*
X149550000Y-69283100D01*
X141269562Y-69283100D01*
X141254266Y-69206202D01*
X140889583Y-68660417D01*
X140343798Y-68295734D01*
X139862509Y-68200000D01*
X139537491Y-68200000D01*
X139056202Y-68295734D01*
X138510417Y-68660417D01*
X138145734Y-69206202D01*
X138017675Y-69850000D01*
X133600000Y-69850000D01*
X133600000Y-66965000D01*
X155285000Y-66965000D01*
X155285001Y-100675000D01*
X143848466Y-100675000D01*
X144153798Y-100614266D01*
X144699583Y-100249583D01*
X145064266Y-99703798D01*
X145192325Y-99060000D01*
X145064266Y-98416202D01*
X144699583Y-97870417D01*
X144153798Y-97505734D01*
X143672509Y-97410000D01*
X143347491Y-97410000D01*
X142866202Y-97505734D01*
X142320417Y-97870417D01*
X141955734Y-98416202D01*
X141827675Y-99060000D01*
X141955734Y-99703798D01*
X142320417Y-100249583D01*
X142866202Y-100614266D01*
X143171534Y-100675000D01*
X93635000Y-100675000D01*
X93635000Y-97223100D01*
X93670000Y-97223100D01*
X93670000Y-98356900D01*
X94103886Y-99404395D01*
X94905605Y-100206114D01*
X95953100Y-100640000D01*
X97086900Y-100640000D01*
X98134395Y-100206114D01*
X98936114Y-99404395D01*
X99370000Y-98356900D01*
X99370000Y-97223100D01*
X99066341Y-96490000D01*
X100703348Y-96490000D01*
X100703348Y-99090000D01*
X100769318Y-99421653D01*
X100957184Y-99702816D01*
X101238347Y-99890682D01*
X101570000Y-99956652D01*
X104170000Y-99956652D01*
X104501653Y-99890682D01*
X104782816Y-99702816D01*
X104970682Y-99421653D01*
X105036652Y-99090000D01*
X105036652Y-96490000D01*
X104970682Y-96158347D01*
X104782816Y-95877184D01*
X104501653Y-95689318D01*
X104170000Y-95623348D01*
X101570000Y-95623348D01*
X101238347Y-95689318D01*
X100957184Y-95877184D01*
X100769318Y-96158347D01*
X100703348Y-96490000D01*
X99066341Y-96490000D01*
X98936114Y-96175605D01*
X98134395Y-95373886D01*
X97086900Y-94940000D01*
X95953100Y-94940000D01*
X94905605Y-95373886D01*
X94103886Y-96175605D01*
X93670000Y-97223100D01*
X93635000Y-97223100D01*
X93635000Y-93651795D01*
X138050000Y-93651795D01*
X138050000Y-94308205D01*
X138301198Y-94914650D01*
X138616548Y-95230000D01*
X138301198Y-95545350D01*
X138050000Y-96151795D01*
X138050000Y-96808205D01*
X138301198Y-97414650D01*
X138765350Y-97878802D01*
X139371795Y-98130000D01*
X140028205Y-98130000D01*
X140634650Y-97878802D01*
X141098802Y-97414650D01*
X141178144Y-97223100D01*
X149550000Y-97223100D01*
X149550000Y-98356900D01*
X149983886Y-99404395D01*
X150785605Y-100206114D01*
X151833100Y-100640000D01*
X152966900Y-100640000D01*
X154014395Y-100206114D01*
X154816114Y-99404395D01*
X155250000Y-98356900D01*
X155250000Y-97223100D01*
X154816114Y-96175605D01*
X154014395Y-95373886D01*
X152966900Y-94940000D01*
X151833100Y-94940000D01*
X150785605Y-95373886D01*
X149983886Y-96175605D01*
X149550000Y-97223100D01*
X141178144Y-97223100D01*
X141350000Y-96808205D01*
X141350000Y-96151795D01*
X141098802Y-95545350D01*
X140783452Y-95230000D01*
X141098802Y-94914650D01*
X141350000Y-94308205D01*
X141350000Y-94239188D01*
X142699119Y-92890069D01*
X143181795Y-93090000D01*
X143838205Y-93090000D01*
X144444650Y-92838802D01*
X144908802Y-92374650D01*
X145160000Y-91768205D01*
X145160000Y-91189188D01*
X145694006Y-91723194D01*
X145765734Y-92083798D01*
X146130417Y-92629583D01*
X146676202Y-92994266D01*
X147157491Y-93090000D01*
X147482509Y-93090000D01*
X147963798Y-92994266D01*
X148509583Y-92629583D01*
X148874266Y-92083798D01*
X149002325Y-91440000D01*
X148874266Y-90796202D01*
X148517316Y-90261990D01*
X148590000Y-90276448D01*
X148722963Y-90250000D01*
X149116744Y-90171672D01*
X149563296Y-89873296D01*
X149638615Y-89760573D01*
X150252537Y-89146652D01*
X150510000Y-89146652D01*
X150841653Y-89080682D01*
X151122816Y-88892816D01*
X151310682Y-88611653D01*
X151376652Y-88280000D01*
X151376652Y-86980000D01*
X151310682Y-86648347D01*
X151122816Y-86367184D01*
X150871836Y-86199485D01*
X151131639Y-85939682D01*
X151360000Y-85388369D01*
X151360000Y-84791631D01*
X151131639Y-84240318D01*
X150709682Y-83818361D01*
X150347550Y-83668361D01*
X148798353Y-82119165D01*
X149010000Y-81608205D01*
X149010000Y-80951795D01*
X148758802Y-80345350D01*
X148670000Y-80256548D01*
X148670000Y-78419503D01*
X148874266Y-78113798D01*
X149002325Y-77470000D01*
X148874266Y-76826202D01*
X148509583Y-76280417D01*
X147963798Y-75915734D01*
X147482509Y-75820000D01*
X147157491Y-75820000D01*
X146676202Y-75915734D01*
X146130417Y-76280417D01*
X145765734Y-76826202D01*
X145637675Y-77470000D01*
X145765734Y-78113798D01*
X145970000Y-78419503D01*
X145970001Y-80336547D01*
X145961198Y-80345350D01*
X145710000Y-80951795D01*
X145710000Y-81608205D01*
X145961198Y-82214650D01*
X146010000Y-82263452D01*
X146010000Y-82457037D01*
X145983552Y-82590000D01*
X146010000Y-82722963D01*
X146088328Y-83116744D01*
X146386705Y-83563296D01*
X146499425Y-83638613D01*
X147888000Y-85027189D01*
X147740318Y-85088361D01*
X147318361Y-85510318D01*
X147090000Y-86061631D01*
X147090000Y-86658369D01*
X147162438Y-86833250D01*
X145828615Y-85499427D01*
X145753296Y-85386704D01*
X145306744Y-85088328D01*
X144912963Y-85010000D01*
X144780000Y-84983552D01*
X144647037Y-85010000D01*
X144642335Y-85010000D01*
X144491653Y-84909318D01*
X144160000Y-84843348D01*
X142860000Y-84843348D01*
X142528347Y-84909318D01*
X142247184Y-85097184D01*
X142079485Y-85348164D01*
X141819682Y-85088361D01*
X141268369Y-84860000D01*
X140671631Y-84860000D01*
X140120318Y-85088361D01*
X139698361Y-85510318D01*
X139548361Y-85872450D01*
X138839425Y-86581387D01*
X138726705Y-86656704D01*
X138651388Y-86769424D01*
X138651387Y-86769425D01*
X138428328Y-87103257D01*
X138323552Y-87630000D01*
X138350001Y-87762968D01*
X138350000Y-92996548D01*
X138301198Y-93045350D01*
X138050000Y-93651795D01*
X93635000Y-93651795D01*
X93635000Y-88571795D01*
X99220000Y-88571795D01*
X99220000Y-89228205D01*
X99471198Y-89834650D01*
X99935350Y-90298802D01*
X100541795Y-90550000D01*
X101198205Y-90550000D01*
X101804650Y-90298802D01*
X102268802Y-89834650D01*
X102520000Y-89228205D01*
X102520000Y-88571795D01*
X102268802Y-87965350D01*
X101804650Y-87501198D01*
X101198205Y-87250000D01*
X100541795Y-87250000D01*
X99935350Y-87501198D01*
X99471198Y-87965350D01*
X99220000Y-88571795D01*
X93635000Y-88571795D01*
X93635000Y-69283100D01*
X93670000Y-69283100D01*
X93670000Y-70416900D01*
X94103886Y-71464395D01*
X94905605Y-72266114D01*
X95953100Y-72700000D01*
X97086900Y-72700000D01*
X98134395Y-72266114D01*
X98235539Y-72164970D01*
X103607500Y-72164970D01*
X103607500Y-72615031D01*
X103712082Y-73140801D01*
X104110470Y-73737030D01*
X104706700Y-74135418D01*
X105410000Y-74275313D01*
X106113301Y-74135418D01*
X106600000Y-73810216D01*
X106600001Y-77223292D01*
X106278205Y-77090000D01*
X105621795Y-77090000D01*
X105015350Y-77341198D01*
X104551198Y-77805350D01*
X104300000Y-78411795D01*
X104300000Y-79068205D01*
X104551198Y-79674650D01*
X105015350Y-80138802D01*
X105621795Y-80390000D01*
X106278205Y-80390000D01*
X106600000Y-80256708D01*
X106600001Y-90498767D01*
X106573552Y-90631735D01*
X106678328Y-91158478D01*
X106866436Y-91440001D01*
X106976705Y-91605031D01*
X107089425Y-91680348D01*
X108171387Y-92762311D01*
X108246704Y-92875031D01*
X108693256Y-93173407D01*
X109087037Y-93251735D01*
X109087038Y-93251735D01*
X109219999Y-93278183D01*
X109352961Y-93251735D01*
X111905125Y-93251735D01*
X112038704Y-93385314D01*
X112681903Y-93651735D01*
X113378097Y-93651735D01*
X114021296Y-93385314D01*
X114513579Y-92893031D01*
X114780000Y-92249832D01*
X114780000Y-91553638D01*
X114513579Y-90910439D01*
X114234875Y-90631735D01*
X114513579Y-90353031D01*
X114780000Y-89709832D01*
X114780000Y-89013638D01*
X114513579Y-88370439D01*
X114234875Y-88091735D01*
X114513579Y-87813031D01*
X114780000Y-87169832D01*
X114780000Y-86473638D01*
X114513579Y-85830439D01*
X114234875Y-85551735D01*
X114513579Y-85273031D01*
X114780000Y-84629832D01*
X114780000Y-83933638D01*
X114513579Y-83290439D01*
X114234875Y-83011735D01*
X114513579Y-82733031D01*
X114780000Y-82089832D01*
X114780000Y-81393638D01*
X114513579Y-80750439D01*
X114234875Y-80471735D01*
X114513579Y-80193031D01*
X114780000Y-79549832D01*
X114780000Y-78853638D01*
X114513579Y-78210439D01*
X114234875Y-77931735D01*
X114513579Y-77653031D01*
X114780000Y-77009832D01*
X114780000Y-76313638D01*
X114513579Y-75670439D01*
X114234875Y-75391735D01*
X114513579Y-75113031D01*
X114780000Y-74469832D01*
X114780000Y-73773638D01*
X114513579Y-73130439D01*
X114021296Y-72638156D01*
X113378097Y-72371735D01*
X112681903Y-72371735D01*
X112038704Y-72638156D01*
X111546421Y-73130439D01*
X111280000Y-73773638D01*
X111280000Y-74469832D01*
X111546421Y-75113031D01*
X111825125Y-75391735D01*
X111546421Y-75670439D01*
X111280000Y-76313638D01*
X111280000Y-77009832D01*
X111546421Y-77653031D01*
X111825125Y-77931735D01*
X111546421Y-78210439D01*
X111280000Y-78853638D01*
X111280000Y-79549832D01*
X111546421Y-80193031D01*
X111825125Y-80471735D01*
X111546421Y-80750439D01*
X111280000Y-81393638D01*
X111280000Y-82089832D01*
X111546421Y-82733031D01*
X111825125Y-83011735D01*
X111546421Y-83290439D01*
X111280000Y-83933638D01*
X111280000Y-84629832D01*
X111546421Y-85273031D01*
X111825125Y-85551735D01*
X111546421Y-85830439D01*
X111280000Y-86473638D01*
X111280000Y-87169832D01*
X111546421Y-87813031D01*
X111825125Y-88091735D01*
X111546421Y-88370439D01*
X111280000Y-89013638D01*
X111280000Y-89709832D01*
X111546421Y-90353031D01*
X111745125Y-90551735D01*
X109779189Y-90551735D01*
X109300000Y-90072547D01*
X109300000Y-80194788D01*
X109362816Y-80152816D01*
X109550682Y-79871653D01*
X109616652Y-79540000D01*
X109616652Y-77940000D01*
X109550682Y-77608347D01*
X109362816Y-77327184D01*
X109300000Y-77285212D01*
X109300000Y-73661496D01*
X109647918Y-73140800D01*
X109752500Y-72615030D01*
X109752500Y-72164969D01*
X109647918Y-71639199D01*
X109249530Y-71042970D01*
X108653300Y-70644582D01*
X107950000Y-70504687D01*
X107246699Y-70644582D01*
X106680000Y-71023239D01*
X106113300Y-70644582D01*
X105410000Y-70504687D01*
X104706699Y-70644582D01*
X104110470Y-71042970D01*
X103712082Y-71639200D01*
X103607500Y-72164970D01*
X98235539Y-72164970D01*
X98936114Y-71464395D01*
X99370000Y-70416900D01*
X99370000Y-69283100D01*
X98936114Y-68235605D01*
X98134395Y-67433886D01*
X97086900Y-67000000D01*
X95953100Y-67000000D01*
X94905605Y-67433886D01*
X94103886Y-68235605D01*
X93670000Y-69283100D01*
X93635000Y-69283100D01*
X93635000Y-66965000D01*
X115320000Y-66965000D01*
X115320000Y-87630000D01*
G04 #@! TD*
M02*
