G04 #@! TF.GenerationSoftware,KiCad,Pcbnew,5.0.2+dfsg1-1*
G04 #@! TF.CreationDate,2019-01-29T13:39:18+01:00*
G04 #@! TF.ProjectId,wifi_noise_gen,77696669-5f6e-46f6-9973-655f67656e2e,rev?*
G04 #@! TF.SameCoordinates,Original*
G04 #@! TF.FileFunction,Soldermask,Bot*
G04 #@! TF.FilePolarity,Negative*
%FSLAX46Y46*%
G04 Gerber Fmt 4.6, Leading zero omitted, Abs format (unit mm)*
G04 Created by KiCad (PCBNEW 5.0.2+dfsg1-1) date Tue 29 Jan 2019 01:39:18 PM STD*
%MOMM*%
%LPD*%
G01*
G04 APERTURE LIST*
%ADD10C,0.100000*%
G04 APERTURE END LIST*
D10*
G36*
X147568228Y-98241703D02*
X147723100Y-98305853D01*
X147862481Y-98398985D01*
X147981015Y-98517519D01*
X148074147Y-98656900D01*
X148138297Y-98811772D01*
X148171000Y-98976184D01*
X148171000Y-99143816D01*
X148138297Y-99308228D01*
X148074147Y-99463100D01*
X147981015Y-99602481D01*
X147862481Y-99721015D01*
X147723100Y-99814147D01*
X147568228Y-99878297D01*
X147403816Y-99911000D01*
X147236184Y-99911000D01*
X147071772Y-99878297D01*
X146916900Y-99814147D01*
X146777519Y-99721015D01*
X146658985Y-99602481D01*
X146565853Y-99463100D01*
X146501703Y-99308228D01*
X146469000Y-99143816D01*
X146469000Y-98976184D01*
X146501703Y-98811772D01*
X146565853Y-98656900D01*
X146658985Y-98517519D01*
X146777519Y-98398985D01*
X146916900Y-98305853D01*
X147071772Y-98241703D01*
X147236184Y-98209000D01*
X147403816Y-98209000D01*
X147568228Y-98241703D01*
X147568228Y-98241703D01*
G37*
G36*
X143676821Y-98221313D02*
X143676824Y-98221314D01*
X143676825Y-98221314D01*
X143837239Y-98269975D01*
X143837241Y-98269976D01*
X143837244Y-98269977D01*
X143985078Y-98348995D01*
X144114659Y-98455341D01*
X144221005Y-98584922D01*
X144300023Y-98732756D01*
X144300024Y-98732759D01*
X144300025Y-98732761D01*
X144348686Y-98893175D01*
X144348687Y-98893179D01*
X144365117Y-99060000D01*
X144348687Y-99226821D01*
X144348686Y-99226824D01*
X144348686Y-99226825D01*
X144301276Y-99383116D01*
X144300023Y-99387244D01*
X144221005Y-99535078D01*
X144114659Y-99664659D01*
X143985078Y-99771005D01*
X143837244Y-99850023D01*
X143837241Y-99850024D01*
X143837239Y-99850025D01*
X143676825Y-99898686D01*
X143676824Y-99898686D01*
X143676821Y-99898687D01*
X143551804Y-99911000D01*
X143468196Y-99911000D01*
X143343179Y-99898687D01*
X143343176Y-99898686D01*
X143343175Y-99898686D01*
X143182761Y-99850025D01*
X143182759Y-99850024D01*
X143182756Y-99850023D01*
X143034922Y-99771005D01*
X142905341Y-99664659D01*
X142798995Y-99535078D01*
X142719977Y-99387244D01*
X142718725Y-99383116D01*
X142671314Y-99226825D01*
X142671314Y-99226824D01*
X142671313Y-99226821D01*
X142654883Y-99060000D01*
X142671313Y-98893179D01*
X142671314Y-98893175D01*
X142719975Y-98732761D01*
X142719976Y-98732759D01*
X142719977Y-98732756D01*
X142798995Y-98584922D01*
X142905341Y-98455341D01*
X143034922Y-98348995D01*
X143182756Y-98269977D01*
X143182759Y-98269976D01*
X143182761Y-98269975D01*
X143343175Y-98221314D01*
X143343176Y-98221314D01*
X143343179Y-98221313D01*
X143468196Y-98209000D01*
X143551804Y-98209000D01*
X143676821Y-98221313D01*
X143676821Y-98221313D01*
G37*
G36*
X97118252Y-95817818D02*
X97118254Y-95817819D01*
X97118255Y-95817819D01*
X97491513Y-95972427D01*
X97822905Y-96193857D01*
X97827439Y-96196886D01*
X98113114Y-96482561D01*
X98113116Y-96482564D01*
X98337573Y-96818487D01*
X98471168Y-97141015D01*
X98492182Y-97191748D01*
X98571000Y-97587993D01*
X98571000Y-97992007D01*
X98499991Y-98348996D01*
X98492181Y-98388255D01*
X98337573Y-98761513D01*
X98337572Y-98761514D01*
X98113114Y-99097439D01*
X97827439Y-99383114D01*
X97827436Y-99383116D01*
X97491513Y-99607573D01*
X97118255Y-99762181D01*
X97118254Y-99762181D01*
X97118252Y-99762182D01*
X96722007Y-99841000D01*
X96317993Y-99841000D01*
X95921748Y-99762182D01*
X95921746Y-99762181D01*
X95921745Y-99762181D01*
X95548487Y-99607573D01*
X95212564Y-99383116D01*
X95212561Y-99383114D01*
X94926886Y-99097439D01*
X94702428Y-98761514D01*
X94702427Y-98761513D01*
X94547819Y-98388255D01*
X94540010Y-98348996D01*
X94469000Y-97992007D01*
X94469000Y-97587993D01*
X94547818Y-97191748D01*
X94568832Y-97141015D01*
X94702427Y-96818487D01*
X94926884Y-96482564D01*
X94926886Y-96482561D01*
X95212561Y-96196886D01*
X95217095Y-96193857D01*
X95548487Y-95972427D01*
X95921745Y-95817819D01*
X95921746Y-95817819D01*
X95921748Y-95817818D01*
X96317993Y-95739000D01*
X96722007Y-95739000D01*
X97118252Y-95817818D01*
X97118252Y-95817818D01*
G37*
G36*
X152998252Y-95817818D02*
X152998254Y-95817819D01*
X152998255Y-95817819D01*
X153371513Y-95972427D01*
X153702905Y-96193857D01*
X153707439Y-96196886D01*
X153993114Y-96482561D01*
X153993116Y-96482564D01*
X154217573Y-96818487D01*
X154351168Y-97141015D01*
X154372182Y-97191748D01*
X154451000Y-97587993D01*
X154451000Y-97992007D01*
X154379991Y-98348996D01*
X154372181Y-98388255D01*
X154217573Y-98761513D01*
X154217572Y-98761514D01*
X153993114Y-99097439D01*
X153707439Y-99383114D01*
X153707436Y-99383116D01*
X153371513Y-99607573D01*
X152998255Y-99762181D01*
X152998254Y-99762181D01*
X152998252Y-99762182D01*
X152602007Y-99841000D01*
X152197993Y-99841000D01*
X151801748Y-99762182D01*
X151801746Y-99762181D01*
X151801745Y-99762181D01*
X151428487Y-99607573D01*
X151092564Y-99383116D01*
X151092561Y-99383114D01*
X150806886Y-99097439D01*
X150582428Y-98761514D01*
X150582427Y-98761513D01*
X150427819Y-98388255D01*
X150420010Y-98348996D01*
X150349000Y-97992007D01*
X150349000Y-97587993D01*
X150427818Y-97191748D01*
X150448832Y-97141015D01*
X150582427Y-96818487D01*
X150806884Y-96482564D01*
X150806886Y-96482561D01*
X151092561Y-96196886D01*
X151097095Y-96193857D01*
X151428487Y-95972427D01*
X151801745Y-95817819D01*
X151801746Y-95817819D01*
X151801748Y-95817818D01*
X152197993Y-95739000D01*
X152602007Y-95739000D01*
X152998252Y-95817818D01*
X152998252Y-95817818D01*
G37*
G36*
X108213567Y-96464959D02*
X108344072Y-96490918D01*
X108589939Y-96592759D01*
X108792681Y-96728228D01*
X108811215Y-96740612D01*
X108999388Y-96928785D01*
X108999390Y-96928788D01*
X109147241Y-97150061D01*
X109249082Y-97395928D01*
X109301000Y-97656938D01*
X109301000Y-97923062D01*
X109249082Y-98184072D01*
X109147241Y-98429939D01*
X108999890Y-98650464D01*
X108999388Y-98651215D01*
X108811215Y-98839388D01*
X108811212Y-98839390D01*
X108589939Y-98987241D01*
X108344072Y-99089082D01*
X108302058Y-99097439D01*
X108083063Y-99141000D01*
X107816937Y-99141000D01*
X107597942Y-99097439D01*
X107555928Y-99089082D01*
X107310061Y-98987241D01*
X107088788Y-98839390D01*
X107088785Y-98839388D01*
X106900612Y-98651215D01*
X106900110Y-98650464D01*
X106752759Y-98429939D01*
X106650918Y-98184072D01*
X106599000Y-97923062D01*
X106599000Y-97656938D01*
X106650918Y-97395928D01*
X106752759Y-97150061D01*
X106900610Y-96928788D01*
X106900612Y-96928785D01*
X107088785Y-96740612D01*
X107107319Y-96728228D01*
X107310061Y-96592759D01*
X107555928Y-96490918D01*
X107686433Y-96464959D01*
X107816937Y-96439000D01*
X108083063Y-96439000D01*
X108213567Y-96464959D01*
X108213567Y-96464959D01*
G37*
G36*
X104221000Y-99141000D02*
X101519000Y-99141000D01*
X101519000Y-96439000D01*
X104221000Y-96439000D01*
X104221000Y-99141000D01*
X104221000Y-99141000D01*
G37*
G36*
X139948228Y-95661703D02*
X140103100Y-95725853D01*
X140242481Y-95818985D01*
X140361015Y-95937519D01*
X140454147Y-96076900D01*
X140518297Y-96231772D01*
X140551000Y-96396184D01*
X140551000Y-96563816D01*
X140518297Y-96728228D01*
X140454147Y-96883100D01*
X140361015Y-97022481D01*
X140242481Y-97141015D01*
X140103100Y-97234147D01*
X139948228Y-97298297D01*
X139783816Y-97331000D01*
X139616184Y-97331000D01*
X139451772Y-97298297D01*
X139296900Y-97234147D01*
X139157519Y-97141015D01*
X139038985Y-97022481D01*
X138945853Y-96883100D01*
X138881703Y-96728228D01*
X138849000Y-96563816D01*
X138849000Y-96396184D01*
X138881703Y-96231772D01*
X138945853Y-96076900D01*
X139038985Y-95937519D01*
X139157519Y-95818985D01*
X139296900Y-95725853D01*
X139451772Y-95661703D01*
X139616184Y-95629000D01*
X139783816Y-95629000D01*
X139948228Y-95661703D01*
X139948228Y-95661703D01*
G37*
G36*
X139948228Y-93161703D02*
X140103100Y-93225853D01*
X140242481Y-93318985D01*
X140361015Y-93437519D01*
X140454147Y-93576900D01*
X140518297Y-93731772D01*
X140551000Y-93896184D01*
X140551000Y-94063816D01*
X140518297Y-94228228D01*
X140454147Y-94383100D01*
X140361015Y-94522481D01*
X140242481Y-94641015D01*
X140103100Y-94734147D01*
X139948228Y-94798297D01*
X139783816Y-94831000D01*
X139616184Y-94831000D01*
X139451772Y-94798297D01*
X139296900Y-94734147D01*
X139157519Y-94641015D01*
X139038985Y-94522481D01*
X138945853Y-94383100D01*
X138881703Y-94228228D01*
X138849000Y-94063816D01*
X138849000Y-93896184D01*
X138881703Y-93731772D01*
X138945853Y-93576900D01*
X139038985Y-93437519D01*
X139157519Y-93318985D01*
X139296900Y-93225853D01*
X139451772Y-93161703D01*
X139616184Y-93129000D01*
X139783816Y-93129000D01*
X139948228Y-93161703D01*
X139948228Y-93161703D01*
G37*
G36*
X136167396Y-90987281D02*
X136340466Y-91058969D01*
X136496230Y-91163047D01*
X136628688Y-91295505D01*
X136732766Y-91451269D01*
X136804454Y-91624339D01*
X136841000Y-91808068D01*
X136841000Y-91995402D01*
X136804454Y-92179131D01*
X136732766Y-92352201D01*
X136628688Y-92507965D01*
X136496230Y-92640423D01*
X136340466Y-92744501D01*
X136167396Y-92816189D01*
X135983667Y-92852735D01*
X135796333Y-92852735D01*
X135612604Y-92816189D01*
X135439534Y-92744501D01*
X135283770Y-92640423D01*
X135151312Y-92507965D01*
X135047234Y-92352201D01*
X134975546Y-92179131D01*
X134939000Y-91995402D01*
X134939000Y-91808068D01*
X134975546Y-91624339D01*
X135047234Y-91451269D01*
X135151312Y-91295505D01*
X135283770Y-91163047D01*
X135439534Y-91058969D01*
X135612604Y-90987281D01*
X135796333Y-90950735D01*
X135983667Y-90950735D01*
X136167396Y-90987281D01*
X136167396Y-90987281D01*
G37*
G36*
X113307396Y-90987281D02*
X113480466Y-91058969D01*
X113636230Y-91163047D01*
X113768688Y-91295505D01*
X113872766Y-91451269D01*
X113944454Y-91624339D01*
X113981000Y-91808068D01*
X113981000Y-91995402D01*
X113944454Y-92179131D01*
X113872766Y-92352201D01*
X113768688Y-92507965D01*
X113636230Y-92640423D01*
X113480466Y-92744501D01*
X113307396Y-92816189D01*
X113123667Y-92852735D01*
X112936333Y-92852735D01*
X112752604Y-92816189D01*
X112579534Y-92744501D01*
X112423770Y-92640423D01*
X112291312Y-92507965D01*
X112187234Y-92352201D01*
X112115546Y-92179131D01*
X112079000Y-91995402D01*
X112079000Y-91808068D01*
X112115546Y-91624339D01*
X112187234Y-91451269D01*
X112291312Y-91295505D01*
X112423770Y-91163047D01*
X112579534Y-91058969D01*
X112752604Y-90987281D01*
X112936333Y-90950735D01*
X113123667Y-90950735D01*
X113307396Y-90987281D01*
X113307396Y-90987281D01*
G37*
G36*
X147486821Y-90601313D02*
X147486824Y-90601314D01*
X147486825Y-90601314D01*
X147647239Y-90649975D01*
X147647241Y-90649976D01*
X147647244Y-90649977D01*
X147795078Y-90728995D01*
X147924659Y-90835341D01*
X148031005Y-90964922D01*
X148110023Y-91112756D01*
X148110024Y-91112759D01*
X148110025Y-91112761D01*
X148158686Y-91273175D01*
X148158687Y-91273179D01*
X148175117Y-91440000D01*
X148158687Y-91606821D01*
X148158686Y-91606824D01*
X148158686Y-91606825D01*
X148133993Y-91688228D01*
X148110023Y-91767244D01*
X148031005Y-91915078D01*
X147924659Y-92044659D01*
X147795078Y-92151005D01*
X147647244Y-92230023D01*
X147647241Y-92230024D01*
X147647239Y-92230025D01*
X147486825Y-92278686D01*
X147486824Y-92278686D01*
X147486821Y-92278687D01*
X147361804Y-92291000D01*
X147278196Y-92291000D01*
X147153179Y-92278687D01*
X147153176Y-92278686D01*
X147153175Y-92278686D01*
X146992761Y-92230025D01*
X146992759Y-92230024D01*
X146992756Y-92230023D01*
X146844922Y-92151005D01*
X146715341Y-92044659D01*
X146608995Y-91915078D01*
X146529977Y-91767244D01*
X146506008Y-91688228D01*
X146481314Y-91606825D01*
X146481314Y-91606824D01*
X146481313Y-91606821D01*
X146464883Y-91440000D01*
X146481313Y-91273179D01*
X146481314Y-91273175D01*
X146529975Y-91112761D01*
X146529976Y-91112759D01*
X146529977Y-91112756D01*
X146608995Y-90964922D01*
X146715341Y-90835341D01*
X146844922Y-90728995D01*
X146992756Y-90649977D01*
X146992759Y-90649976D01*
X146992761Y-90649975D01*
X147153175Y-90601314D01*
X147153176Y-90601314D01*
X147153179Y-90601313D01*
X147278196Y-90589000D01*
X147361804Y-90589000D01*
X147486821Y-90601313D01*
X147486821Y-90601313D01*
G37*
G36*
X143758228Y-90621703D02*
X143913100Y-90685853D01*
X144052481Y-90778985D01*
X144171015Y-90897519D01*
X144264147Y-91036900D01*
X144328297Y-91191772D01*
X144361000Y-91356184D01*
X144361000Y-91523816D01*
X144328297Y-91688228D01*
X144264147Y-91843100D01*
X144171015Y-91982481D01*
X144052481Y-92101015D01*
X143913100Y-92194147D01*
X143758228Y-92258297D01*
X143593816Y-92291000D01*
X143426184Y-92291000D01*
X143261772Y-92258297D01*
X143106900Y-92194147D01*
X142967519Y-92101015D01*
X142848985Y-91982481D01*
X142755853Y-91843100D01*
X142691703Y-91688228D01*
X142659000Y-91523816D01*
X142659000Y-91356184D01*
X142691703Y-91191772D01*
X142755853Y-91036900D01*
X142848985Y-90897519D01*
X142967519Y-90778985D01*
X143106900Y-90685853D01*
X143261772Y-90621703D01*
X143426184Y-90589000D01*
X143593816Y-90589000D01*
X143758228Y-90621703D01*
X143758228Y-90621703D01*
G37*
G36*
X136167396Y-88447281D02*
X136340466Y-88518969D01*
X136496230Y-88623047D01*
X136628688Y-88755505D01*
X136732766Y-88911269D01*
X136804454Y-89084339D01*
X136841000Y-89268068D01*
X136841000Y-89455402D01*
X136804454Y-89639131D01*
X136732766Y-89812201D01*
X136628688Y-89967965D01*
X136496230Y-90100423D01*
X136340466Y-90204501D01*
X136167396Y-90276189D01*
X135983667Y-90312735D01*
X135796333Y-90312735D01*
X135612604Y-90276189D01*
X135439534Y-90204501D01*
X135283770Y-90100423D01*
X135151312Y-89967965D01*
X135047234Y-89812201D01*
X134975546Y-89639131D01*
X134939000Y-89455402D01*
X134939000Y-89268068D01*
X134975546Y-89084339D01*
X135047234Y-88911269D01*
X135151312Y-88755505D01*
X135283770Y-88623047D01*
X135439534Y-88518969D01*
X135612604Y-88447281D01*
X135796333Y-88410735D01*
X135983667Y-88410735D01*
X136167396Y-88447281D01*
X136167396Y-88447281D01*
G37*
G36*
X113307396Y-88447281D02*
X113480466Y-88518969D01*
X113636230Y-88623047D01*
X113768688Y-88755505D01*
X113872766Y-88911269D01*
X113944454Y-89084339D01*
X113981000Y-89268068D01*
X113981000Y-89455402D01*
X113944454Y-89639131D01*
X113872766Y-89812201D01*
X113768688Y-89967965D01*
X113636230Y-90100423D01*
X113480466Y-90204501D01*
X113307396Y-90276189D01*
X113123667Y-90312735D01*
X112936333Y-90312735D01*
X112752604Y-90276189D01*
X112579534Y-90204501D01*
X112423770Y-90100423D01*
X112291312Y-89967965D01*
X112187234Y-89812201D01*
X112115546Y-89639131D01*
X112079000Y-89455402D01*
X112079000Y-89268068D01*
X112115546Y-89084339D01*
X112187234Y-88911269D01*
X112291312Y-88755505D01*
X112423770Y-88623047D01*
X112579534Y-88518969D01*
X112752604Y-88447281D01*
X112936333Y-88410735D01*
X113123667Y-88410735D01*
X113307396Y-88447281D01*
X113307396Y-88447281D01*
G37*
G36*
X103721000Y-89751000D02*
X102019000Y-89751000D01*
X102019000Y-88049000D01*
X103721000Y-88049000D01*
X103721000Y-89751000D01*
X103721000Y-89751000D01*
G37*
G36*
X101118228Y-88081703D02*
X101273100Y-88145853D01*
X101412481Y-88238985D01*
X101531015Y-88357519D01*
X101624147Y-88496900D01*
X101688297Y-88651772D01*
X101721000Y-88816184D01*
X101721000Y-88983816D01*
X101688297Y-89148228D01*
X101624147Y-89303100D01*
X101531015Y-89442481D01*
X101412481Y-89561015D01*
X101273100Y-89654147D01*
X101118228Y-89718297D01*
X100953816Y-89751000D01*
X100786184Y-89751000D01*
X100621772Y-89718297D01*
X100466900Y-89654147D01*
X100327519Y-89561015D01*
X100208985Y-89442481D01*
X100115853Y-89303100D01*
X100051703Y-89148228D01*
X100019000Y-88983816D01*
X100019000Y-88816184D01*
X100051703Y-88651772D01*
X100115853Y-88496900D01*
X100208985Y-88357519D01*
X100327519Y-88238985D01*
X100466900Y-88145853D01*
X100621772Y-88081703D01*
X100786184Y-88049000D01*
X100953816Y-88049000D01*
X101118228Y-88081703D01*
X101118228Y-88081703D01*
G37*
G36*
X144211000Y-87061000D02*
X142936751Y-87061000D01*
X142912365Y-87063402D01*
X142888916Y-87070515D01*
X142867305Y-87082066D01*
X142848363Y-87097612D01*
X142832817Y-87116554D01*
X142821266Y-87138165D01*
X142814153Y-87161614D01*
X142811751Y-87186000D01*
X142814153Y-87210386D01*
X142821266Y-87233835D01*
X142832817Y-87255446D01*
X142861218Y-87297951D01*
X142914062Y-87425528D01*
X142941000Y-87560956D01*
X142941000Y-87699044D01*
X142914062Y-87834472D01*
X142861218Y-87962049D01*
X142784500Y-88076865D01*
X142686865Y-88174500D01*
X142572049Y-88251218D01*
X142444472Y-88304062D01*
X142309044Y-88331000D01*
X142170956Y-88331000D01*
X142035528Y-88304062D01*
X141907951Y-88251218D01*
X141793135Y-88174500D01*
X141695500Y-88076865D01*
X141618782Y-87962049D01*
X141565938Y-87834472D01*
X141539000Y-87699044D01*
X141539000Y-87560956D01*
X141565938Y-87425528D01*
X141618782Y-87297951D01*
X141695500Y-87183135D01*
X141793135Y-87085500D01*
X141907951Y-87008782D01*
X142035528Y-86955938D01*
X142170956Y-86929000D01*
X142309044Y-86929000D01*
X142444472Y-86955938D01*
X142572049Y-87008782D01*
X142614554Y-87037183D01*
X142636165Y-87048734D01*
X142659614Y-87055847D01*
X142684000Y-87058249D01*
X142708386Y-87055847D01*
X142731836Y-87048734D01*
X142753446Y-87037183D01*
X142772388Y-87021637D01*
X142787934Y-87002695D01*
X142799485Y-86981084D01*
X142806598Y-86957635D01*
X142809000Y-86933249D01*
X142809000Y-85659000D01*
X144211000Y-85659000D01*
X144211000Y-87061000D01*
X144211000Y-87061000D01*
G37*
G36*
X148794472Y-85685938D02*
X148922049Y-85738782D01*
X149036865Y-85815500D01*
X149134500Y-85913135D01*
X149211218Y-86027951D01*
X149264062Y-86155528D01*
X149291000Y-86290956D01*
X149291000Y-86429044D01*
X149264062Y-86564472D01*
X149211218Y-86692049D01*
X149182817Y-86734554D01*
X149171266Y-86756165D01*
X149164153Y-86779614D01*
X149161751Y-86804000D01*
X149164153Y-86828386D01*
X149171266Y-86851836D01*
X149182817Y-86873446D01*
X149198363Y-86892388D01*
X149217305Y-86907934D01*
X149238916Y-86919485D01*
X149262365Y-86926598D01*
X149286751Y-86929000D01*
X150561000Y-86929000D01*
X150561000Y-88331000D01*
X149159000Y-88331000D01*
X149159000Y-87056751D01*
X149156598Y-87032365D01*
X149149485Y-87008916D01*
X149137934Y-86987305D01*
X149122388Y-86968363D01*
X149103446Y-86952817D01*
X149081835Y-86941266D01*
X149058386Y-86934153D01*
X149034000Y-86931751D01*
X149009614Y-86934153D01*
X148986165Y-86941266D01*
X148964554Y-86952817D01*
X148922049Y-86981218D01*
X148794472Y-87034062D01*
X148659044Y-87061000D01*
X148520956Y-87061000D01*
X148385528Y-87034062D01*
X148257951Y-86981218D01*
X148143135Y-86904500D01*
X148045500Y-86806865D01*
X147968782Y-86692049D01*
X147915938Y-86564472D01*
X147889000Y-86429044D01*
X147889000Y-86290956D01*
X147915938Y-86155528D01*
X147968782Y-86027951D01*
X148045500Y-85913135D01*
X148143135Y-85815500D01*
X148257951Y-85738782D01*
X148385528Y-85685938D01*
X148520956Y-85659000D01*
X148659044Y-85659000D01*
X148794472Y-85685938D01*
X148794472Y-85685938D01*
G37*
G36*
X136167396Y-85907281D02*
X136340466Y-85978969D01*
X136496230Y-86083047D01*
X136628688Y-86215505D01*
X136732766Y-86371269D01*
X136804454Y-86544339D01*
X136841000Y-86728068D01*
X136841000Y-86915402D01*
X136804454Y-87099131D01*
X136732766Y-87272201D01*
X136628688Y-87427965D01*
X136496230Y-87560423D01*
X136340466Y-87664501D01*
X136167396Y-87736189D01*
X135983667Y-87772735D01*
X135796333Y-87772735D01*
X135612604Y-87736189D01*
X135439534Y-87664501D01*
X135283770Y-87560423D01*
X135151312Y-87427965D01*
X135047234Y-87272201D01*
X134975546Y-87099131D01*
X134939000Y-86915402D01*
X134939000Y-86728068D01*
X134975546Y-86544339D01*
X135047234Y-86371269D01*
X135151312Y-86215505D01*
X135283770Y-86083047D01*
X135439534Y-85978969D01*
X135612604Y-85907281D01*
X135796333Y-85870735D01*
X135983667Y-85870735D01*
X136167396Y-85907281D01*
X136167396Y-85907281D01*
G37*
G36*
X113307396Y-85907281D02*
X113480466Y-85978969D01*
X113636230Y-86083047D01*
X113768688Y-86215505D01*
X113872766Y-86371269D01*
X113944454Y-86544339D01*
X113981000Y-86728068D01*
X113981000Y-86915402D01*
X113944454Y-87099131D01*
X113872766Y-87272201D01*
X113768688Y-87427965D01*
X113636230Y-87560423D01*
X113480466Y-87664501D01*
X113307396Y-87736189D01*
X113123667Y-87772735D01*
X112936333Y-87772735D01*
X112752604Y-87736189D01*
X112579534Y-87664501D01*
X112423770Y-87560423D01*
X112291312Y-87427965D01*
X112187234Y-87272201D01*
X112115546Y-87099131D01*
X112079000Y-86915402D01*
X112079000Y-86728068D01*
X112115546Y-86544339D01*
X112187234Y-86371269D01*
X112291312Y-86215505D01*
X112423770Y-86083047D01*
X112579534Y-85978969D01*
X112752604Y-85907281D01*
X112936333Y-85870735D01*
X113123667Y-85870735D01*
X113307396Y-85907281D01*
X113307396Y-85907281D01*
G37*
G36*
X141174472Y-85685938D02*
X141302049Y-85738782D01*
X141416865Y-85815500D01*
X141514500Y-85913135D01*
X141591218Y-86027951D01*
X141644062Y-86155528D01*
X141671000Y-86290956D01*
X141671000Y-86429044D01*
X141644062Y-86564472D01*
X141591218Y-86692049D01*
X141514500Y-86806865D01*
X141416865Y-86904500D01*
X141302049Y-86981218D01*
X141174472Y-87034062D01*
X141039044Y-87061000D01*
X140900956Y-87061000D01*
X140765528Y-87034062D01*
X140637951Y-86981218D01*
X140523135Y-86904500D01*
X140425500Y-86806865D01*
X140348782Y-86692049D01*
X140295938Y-86564472D01*
X140269000Y-86429044D01*
X140269000Y-86290956D01*
X140295938Y-86155528D01*
X140348782Y-86027951D01*
X140425500Y-85913135D01*
X140523135Y-85815500D01*
X140637951Y-85738782D01*
X140765528Y-85685938D01*
X140900956Y-85659000D01*
X141039044Y-85659000D01*
X141174472Y-85685938D01*
X141174472Y-85685938D01*
G37*
G36*
X150064472Y-84415938D02*
X150192049Y-84468782D01*
X150306865Y-84545500D01*
X150404500Y-84643135D01*
X150481218Y-84757951D01*
X150534062Y-84885528D01*
X150561000Y-85020956D01*
X150561000Y-85159044D01*
X150534062Y-85294472D01*
X150481218Y-85422049D01*
X150404500Y-85536865D01*
X150306865Y-85634500D01*
X150192049Y-85711218D01*
X150064472Y-85764062D01*
X149929044Y-85791000D01*
X149790956Y-85791000D01*
X149655528Y-85764062D01*
X149527951Y-85711218D01*
X149413135Y-85634500D01*
X149315500Y-85536865D01*
X149238782Y-85422049D01*
X149185938Y-85294472D01*
X149159000Y-85159044D01*
X149159000Y-85020956D01*
X149185938Y-84885528D01*
X149238782Y-84757951D01*
X149315500Y-84643135D01*
X149413135Y-84545500D01*
X149527951Y-84468782D01*
X149655528Y-84415938D01*
X149790956Y-84389000D01*
X149929044Y-84389000D01*
X150064472Y-84415938D01*
X150064472Y-84415938D01*
G37*
G36*
X113307396Y-83367281D02*
X113480466Y-83438969D01*
X113636230Y-83543047D01*
X113768688Y-83675505D01*
X113872766Y-83831269D01*
X113944454Y-84004339D01*
X113981000Y-84188068D01*
X113981000Y-84375402D01*
X113944454Y-84559131D01*
X113872766Y-84732201D01*
X113768688Y-84887965D01*
X113636230Y-85020423D01*
X113480466Y-85124501D01*
X113307396Y-85196189D01*
X113123667Y-85232735D01*
X112936333Y-85232735D01*
X112752604Y-85196189D01*
X112579534Y-85124501D01*
X112423770Y-85020423D01*
X112291312Y-84887965D01*
X112187234Y-84732201D01*
X112115546Y-84559131D01*
X112079000Y-84375402D01*
X112079000Y-84188068D01*
X112115546Y-84004339D01*
X112187234Y-83831269D01*
X112291312Y-83675505D01*
X112423770Y-83543047D01*
X112579534Y-83438969D01*
X112752604Y-83367281D01*
X112936333Y-83330735D01*
X113123667Y-83330735D01*
X113307396Y-83367281D01*
X113307396Y-83367281D01*
G37*
G36*
X136167396Y-83367281D02*
X136340466Y-83438969D01*
X136496230Y-83543047D01*
X136628688Y-83675505D01*
X136732766Y-83831269D01*
X136804454Y-84004339D01*
X136841000Y-84188068D01*
X136841000Y-84375402D01*
X136804454Y-84559131D01*
X136732766Y-84732201D01*
X136628688Y-84887965D01*
X136496230Y-85020423D01*
X136340466Y-85124501D01*
X136167396Y-85196189D01*
X135983667Y-85232735D01*
X135796333Y-85232735D01*
X135612604Y-85196189D01*
X135439534Y-85124501D01*
X135283770Y-85020423D01*
X135151312Y-84887965D01*
X135047234Y-84732201D01*
X134975546Y-84559131D01*
X134939000Y-84375402D01*
X134939000Y-84188068D01*
X134975546Y-84004339D01*
X135047234Y-83831269D01*
X135151312Y-83675505D01*
X135283770Y-83543047D01*
X135439534Y-83438969D01*
X135612604Y-83367281D01*
X135796333Y-83330735D01*
X135983667Y-83330735D01*
X136167396Y-83367281D01*
X136167396Y-83367281D01*
G37*
G36*
X136167396Y-80827281D02*
X136340466Y-80898969D01*
X136496230Y-81003047D01*
X136628688Y-81135505D01*
X136732766Y-81291269D01*
X136804454Y-81464339D01*
X136841000Y-81648068D01*
X136841000Y-81835402D01*
X136804454Y-82019131D01*
X136732766Y-82192201D01*
X136628688Y-82347965D01*
X136496230Y-82480423D01*
X136340466Y-82584501D01*
X136167396Y-82656189D01*
X135983667Y-82692735D01*
X135796333Y-82692735D01*
X135612604Y-82656189D01*
X135439534Y-82584501D01*
X135283770Y-82480423D01*
X135151312Y-82347965D01*
X135047234Y-82192201D01*
X134975546Y-82019131D01*
X134939000Y-81835402D01*
X134939000Y-81648068D01*
X134975546Y-81464339D01*
X135047234Y-81291269D01*
X135151312Y-81135505D01*
X135283770Y-81003047D01*
X135439534Y-80898969D01*
X135612604Y-80827281D01*
X135796333Y-80790735D01*
X135983667Y-80790735D01*
X136167396Y-80827281D01*
X136167396Y-80827281D01*
G37*
G36*
X113307396Y-80827281D02*
X113480466Y-80898969D01*
X113636230Y-81003047D01*
X113768688Y-81135505D01*
X113872766Y-81291269D01*
X113944454Y-81464339D01*
X113981000Y-81648068D01*
X113981000Y-81835402D01*
X113944454Y-82019131D01*
X113872766Y-82192201D01*
X113768688Y-82347965D01*
X113636230Y-82480423D01*
X113480466Y-82584501D01*
X113307396Y-82656189D01*
X113123667Y-82692735D01*
X112936333Y-82692735D01*
X112752604Y-82656189D01*
X112579534Y-82584501D01*
X112423770Y-82480423D01*
X112291312Y-82347965D01*
X112187234Y-82192201D01*
X112115546Y-82019131D01*
X112079000Y-81835402D01*
X112079000Y-81648068D01*
X112115546Y-81464339D01*
X112187234Y-81291269D01*
X112291312Y-81135505D01*
X112423770Y-81003047D01*
X112579534Y-80898969D01*
X112752604Y-80827281D01*
X112936333Y-80790735D01*
X113123667Y-80790735D01*
X113307396Y-80827281D01*
X113307396Y-80827281D01*
G37*
G36*
X150108228Y-80461703D02*
X150263100Y-80525853D01*
X150402481Y-80618985D01*
X150521015Y-80737519D01*
X150614147Y-80876900D01*
X150678297Y-81031772D01*
X150711000Y-81196184D01*
X150711000Y-81363816D01*
X150678297Y-81528228D01*
X150614147Y-81683100D01*
X150521015Y-81822481D01*
X150402481Y-81941015D01*
X150263100Y-82034147D01*
X150108228Y-82098297D01*
X149943816Y-82131000D01*
X149776184Y-82131000D01*
X149611772Y-82098297D01*
X149456900Y-82034147D01*
X149317519Y-81941015D01*
X149198985Y-81822481D01*
X149105853Y-81683100D01*
X149041703Y-81528228D01*
X149009000Y-81363816D01*
X149009000Y-81196184D01*
X149041703Y-81031772D01*
X149105853Y-80876900D01*
X149198985Y-80737519D01*
X149317519Y-80618985D01*
X149456900Y-80525853D01*
X149611772Y-80461703D01*
X149776184Y-80429000D01*
X149943816Y-80429000D01*
X150108228Y-80461703D01*
X150108228Y-80461703D01*
G37*
G36*
X147608228Y-80461703D02*
X147763100Y-80525853D01*
X147902481Y-80618985D01*
X148021015Y-80737519D01*
X148114147Y-80876900D01*
X148178297Y-81031772D01*
X148211000Y-81196184D01*
X148211000Y-81363816D01*
X148178297Y-81528228D01*
X148114147Y-81683100D01*
X148021015Y-81822481D01*
X147902481Y-81941015D01*
X147763100Y-82034147D01*
X147608228Y-82098297D01*
X147443816Y-82131000D01*
X147276184Y-82131000D01*
X147111772Y-82098297D01*
X146956900Y-82034147D01*
X146817519Y-81941015D01*
X146698985Y-81822481D01*
X146605853Y-81683100D01*
X146541703Y-81528228D01*
X146509000Y-81363816D01*
X146509000Y-81196184D01*
X146541703Y-81031772D01*
X146605853Y-80876900D01*
X146698985Y-80737519D01*
X146817519Y-80618985D01*
X146956900Y-80525853D01*
X147111772Y-80461703D01*
X147276184Y-80429000D01*
X147443816Y-80429000D01*
X147608228Y-80461703D01*
X147608228Y-80461703D01*
G37*
G36*
X139988228Y-80461703D02*
X140143100Y-80525853D01*
X140282481Y-80618985D01*
X140401015Y-80737519D01*
X140494147Y-80876900D01*
X140558297Y-81031772D01*
X140591000Y-81196184D01*
X140591000Y-81363816D01*
X140558297Y-81528228D01*
X140494147Y-81683100D01*
X140401015Y-81822481D01*
X140282481Y-81941015D01*
X140143100Y-82034147D01*
X139988228Y-82098297D01*
X139823816Y-82131000D01*
X139656184Y-82131000D01*
X139491772Y-82098297D01*
X139336900Y-82034147D01*
X139197519Y-81941015D01*
X139078985Y-81822481D01*
X138985853Y-81683100D01*
X138921703Y-81528228D01*
X138889000Y-81363816D01*
X138889000Y-81196184D01*
X138921703Y-81031772D01*
X138985853Y-80876900D01*
X139078985Y-80737519D01*
X139197519Y-80618985D01*
X139336900Y-80525853D01*
X139491772Y-80461703D01*
X139656184Y-80429000D01*
X139823816Y-80429000D01*
X139988228Y-80461703D01*
X139988228Y-80461703D01*
G37*
G36*
X142488228Y-80461703D02*
X142643100Y-80525853D01*
X142782481Y-80618985D01*
X142901015Y-80737519D01*
X142994147Y-80876900D01*
X143058297Y-81031772D01*
X143091000Y-81196184D01*
X143091000Y-81363816D01*
X143058297Y-81528228D01*
X142994147Y-81683100D01*
X142901015Y-81822481D01*
X142782481Y-81941015D01*
X142643100Y-82034147D01*
X142488228Y-82098297D01*
X142323816Y-82131000D01*
X142156184Y-82131000D01*
X141991772Y-82098297D01*
X141836900Y-82034147D01*
X141697519Y-81941015D01*
X141578985Y-81822481D01*
X141485853Y-81683100D01*
X141421703Y-81528228D01*
X141389000Y-81363816D01*
X141389000Y-81196184D01*
X141421703Y-81031772D01*
X141485853Y-80876900D01*
X141578985Y-80737519D01*
X141697519Y-80618985D01*
X141836900Y-80525853D01*
X141991772Y-80461703D01*
X142156184Y-80429000D01*
X142323816Y-80429000D01*
X142488228Y-80461703D01*
X142488228Y-80461703D01*
G37*
G36*
X113307396Y-78287281D02*
X113480466Y-78358969D01*
X113636230Y-78463047D01*
X113768688Y-78595505D01*
X113872766Y-78751269D01*
X113944454Y-78924339D01*
X113981000Y-79108068D01*
X113981000Y-79295402D01*
X113944454Y-79479131D01*
X113872766Y-79652201D01*
X113768688Y-79807965D01*
X113636230Y-79940423D01*
X113480466Y-80044501D01*
X113307396Y-80116189D01*
X113123667Y-80152735D01*
X112936333Y-80152735D01*
X112752604Y-80116189D01*
X112579534Y-80044501D01*
X112423770Y-79940423D01*
X112291312Y-79807965D01*
X112187234Y-79652201D01*
X112115546Y-79479131D01*
X112079000Y-79295402D01*
X112079000Y-79108068D01*
X112115546Y-78924339D01*
X112187234Y-78751269D01*
X112291312Y-78595505D01*
X112423770Y-78463047D01*
X112579534Y-78358969D01*
X112752604Y-78287281D01*
X112936333Y-78250735D01*
X113123667Y-78250735D01*
X113307396Y-78287281D01*
X113307396Y-78287281D01*
G37*
G36*
X136167396Y-78287281D02*
X136340466Y-78358969D01*
X136496230Y-78463047D01*
X136628688Y-78595505D01*
X136732766Y-78751269D01*
X136804454Y-78924339D01*
X136841000Y-79108068D01*
X136841000Y-79295402D01*
X136804454Y-79479131D01*
X136732766Y-79652201D01*
X136628688Y-79807965D01*
X136496230Y-79940423D01*
X136340466Y-80044501D01*
X136167396Y-80116189D01*
X135983667Y-80152735D01*
X135796333Y-80152735D01*
X135612604Y-80116189D01*
X135439534Y-80044501D01*
X135283770Y-79940423D01*
X135151312Y-79807965D01*
X135047234Y-79652201D01*
X134975546Y-79479131D01*
X134939000Y-79295402D01*
X134939000Y-79108068D01*
X134975546Y-78924339D01*
X135047234Y-78751269D01*
X135151312Y-78595505D01*
X135283770Y-78463047D01*
X135439534Y-78358969D01*
X135612604Y-78287281D01*
X135796333Y-78250735D01*
X135983667Y-78250735D01*
X136167396Y-78287281D01*
X136167396Y-78287281D01*
G37*
G36*
X108801000Y-79591000D02*
X107099000Y-79591000D01*
X107099000Y-77889000D01*
X108801000Y-77889000D01*
X108801000Y-79591000D01*
X108801000Y-79591000D01*
G37*
G36*
X106198228Y-77921703D02*
X106353100Y-77985853D01*
X106492481Y-78078985D01*
X106611015Y-78197519D01*
X106704147Y-78336900D01*
X106768297Y-78491772D01*
X106801000Y-78656184D01*
X106801000Y-78823816D01*
X106768297Y-78988228D01*
X106704147Y-79143100D01*
X106611015Y-79282481D01*
X106492481Y-79401015D01*
X106353100Y-79494147D01*
X106198228Y-79558297D01*
X106033816Y-79591000D01*
X105866184Y-79591000D01*
X105701772Y-79558297D01*
X105546900Y-79494147D01*
X105407519Y-79401015D01*
X105288985Y-79282481D01*
X105195853Y-79143100D01*
X105131703Y-78988228D01*
X105099000Y-78823816D01*
X105099000Y-78656184D01*
X105131703Y-78491772D01*
X105195853Y-78336900D01*
X105288985Y-78197519D01*
X105407519Y-78078985D01*
X105546900Y-77985853D01*
X105701772Y-77921703D01*
X105866184Y-77889000D01*
X106033816Y-77889000D01*
X106198228Y-77921703D01*
X106198228Y-77921703D01*
G37*
G36*
X143676821Y-76631313D02*
X143676824Y-76631314D01*
X143676825Y-76631314D01*
X143837239Y-76679975D01*
X143837241Y-76679976D01*
X143837244Y-76679977D01*
X143985078Y-76758995D01*
X144114659Y-76865341D01*
X144221005Y-76994922D01*
X144300023Y-77142756D01*
X144300024Y-77142759D01*
X144300025Y-77142761D01*
X144338004Y-77267962D01*
X144348687Y-77303179D01*
X144365117Y-77470000D01*
X144348687Y-77636821D01*
X144348686Y-77636824D01*
X144348686Y-77636825D01*
X144323993Y-77718228D01*
X144300023Y-77797244D01*
X144221005Y-77945078D01*
X144114659Y-78074659D01*
X143985078Y-78181005D01*
X143837244Y-78260023D01*
X143837241Y-78260024D01*
X143837239Y-78260025D01*
X143676825Y-78308686D01*
X143676824Y-78308686D01*
X143676821Y-78308687D01*
X143551804Y-78321000D01*
X143468196Y-78321000D01*
X143343179Y-78308687D01*
X143343176Y-78308686D01*
X143343175Y-78308686D01*
X143182761Y-78260025D01*
X143182759Y-78260024D01*
X143182756Y-78260023D01*
X143034922Y-78181005D01*
X142905341Y-78074659D01*
X142798995Y-77945078D01*
X142719977Y-77797244D01*
X142696008Y-77718228D01*
X142671314Y-77636825D01*
X142671314Y-77636824D01*
X142671313Y-77636821D01*
X142654883Y-77470000D01*
X142671313Y-77303179D01*
X142681996Y-77267962D01*
X142719975Y-77142761D01*
X142719976Y-77142759D01*
X142719977Y-77142756D01*
X142798995Y-76994922D01*
X142905341Y-76865341D01*
X143034922Y-76758995D01*
X143182756Y-76679977D01*
X143182759Y-76679976D01*
X143182761Y-76679975D01*
X143343175Y-76631314D01*
X143343176Y-76631314D01*
X143343179Y-76631313D01*
X143468196Y-76619000D01*
X143551804Y-76619000D01*
X143676821Y-76631313D01*
X143676821Y-76631313D01*
G37*
G36*
X147486821Y-76631313D02*
X147486824Y-76631314D01*
X147486825Y-76631314D01*
X147647239Y-76679975D01*
X147647241Y-76679976D01*
X147647244Y-76679977D01*
X147795078Y-76758995D01*
X147924659Y-76865341D01*
X148031005Y-76994922D01*
X148110023Y-77142756D01*
X148110024Y-77142759D01*
X148110025Y-77142761D01*
X148148004Y-77267962D01*
X148158687Y-77303179D01*
X148175117Y-77470000D01*
X148158687Y-77636821D01*
X148158686Y-77636824D01*
X148158686Y-77636825D01*
X148133993Y-77718228D01*
X148110023Y-77797244D01*
X148031005Y-77945078D01*
X147924659Y-78074659D01*
X147795078Y-78181005D01*
X147647244Y-78260023D01*
X147647241Y-78260024D01*
X147647239Y-78260025D01*
X147486825Y-78308686D01*
X147486824Y-78308686D01*
X147486821Y-78308687D01*
X147361804Y-78321000D01*
X147278196Y-78321000D01*
X147153179Y-78308687D01*
X147153176Y-78308686D01*
X147153175Y-78308686D01*
X146992761Y-78260025D01*
X146992759Y-78260024D01*
X146992756Y-78260023D01*
X146844922Y-78181005D01*
X146715341Y-78074659D01*
X146608995Y-77945078D01*
X146529977Y-77797244D01*
X146506008Y-77718228D01*
X146481314Y-77636825D01*
X146481314Y-77636824D01*
X146481313Y-77636821D01*
X146464883Y-77470000D01*
X146481313Y-77303179D01*
X146491996Y-77267962D01*
X146529975Y-77142761D01*
X146529976Y-77142759D01*
X146529977Y-77142756D01*
X146608995Y-76994922D01*
X146715341Y-76865341D01*
X146844922Y-76758995D01*
X146992756Y-76679977D01*
X146992759Y-76679976D01*
X146992761Y-76679975D01*
X147153175Y-76631314D01*
X147153176Y-76631314D01*
X147153179Y-76631313D01*
X147278196Y-76619000D01*
X147361804Y-76619000D01*
X147486821Y-76631313D01*
X147486821Y-76631313D01*
G37*
G36*
X139948228Y-76651703D02*
X140103100Y-76715853D01*
X140242481Y-76808985D01*
X140361015Y-76927519D01*
X140454147Y-77066900D01*
X140518297Y-77221772D01*
X140551000Y-77386184D01*
X140551000Y-77553816D01*
X140518297Y-77718228D01*
X140454147Y-77873100D01*
X140361015Y-78012481D01*
X140242481Y-78131015D01*
X140103100Y-78224147D01*
X139948228Y-78288297D01*
X139783816Y-78321000D01*
X139616184Y-78321000D01*
X139451772Y-78288297D01*
X139296900Y-78224147D01*
X139157519Y-78131015D01*
X139038985Y-78012481D01*
X138945853Y-77873100D01*
X138881703Y-77718228D01*
X138849000Y-77553816D01*
X138849000Y-77386184D01*
X138881703Y-77221772D01*
X138945853Y-77066900D01*
X139038985Y-76927519D01*
X139157519Y-76808985D01*
X139296900Y-76715853D01*
X139451772Y-76651703D01*
X139616184Y-76619000D01*
X139783816Y-76619000D01*
X139948228Y-76651703D01*
X139948228Y-76651703D01*
G37*
G36*
X136167396Y-75747281D02*
X136340466Y-75818969D01*
X136496230Y-75923047D01*
X136628688Y-76055505D01*
X136732766Y-76211269D01*
X136804454Y-76384339D01*
X136841000Y-76568068D01*
X136841000Y-76755402D01*
X136804454Y-76939131D01*
X136732766Y-77112201D01*
X136628688Y-77267965D01*
X136496230Y-77400423D01*
X136340466Y-77504501D01*
X136167396Y-77576189D01*
X135983667Y-77612735D01*
X135796333Y-77612735D01*
X135612604Y-77576189D01*
X135439534Y-77504501D01*
X135283770Y-77400423D01*
X135151312Y-77267965D01*
X135047234Y-77112201D01*
X134975546Y-76939131D01*
X134939000Y-76755402D01*
X134939000Y-76568068D01*
X134975546Y-76384339D01*
X135047234Y-76211269D01*
X135151312Y-76055505D01*
X135283770Y-75923047D01*
X135439534Y-75818969D01*
X135612604Y-75747281D01*
X135796333Y-75710735D01*
X135983667Y-75710735D01*
X136167396Y-75747281D01*
X136167396Y-75747281D01*
G37*
G36*
X113307396Y-75747281D02*
X113480466Y-75818969D01*
X113636230Y-75923047D01*
X113768688Y-76055505D01*
X113872766Y-76211269D01*
X113944454Y-76384339D01*
X113981000Y-76568068D01*
X113981000Y-76755402D01*
X113944454Y-76939131D01*
X113872766Y-77112201D01*
X113768688Y-77267965D01*
X113636230Y-77400423D01*
X113480466Y-77504501D01*
X113307396Y-77576189D01*
X113123667Y-77612735D01*
X112936333Y-77612735D01*
X112752604Y-77576189D01*
X112579534Y-77504501D01*
X112423770Y-77400423D01*
X112291312Y-77267965D01*
X112187234Y-77112201D01*
X112115546Y-76939131D01*
X112079000Y-76755402D01*
X112079000Y-76568068D01*
X112115546Y-76384339D01*
X112187234Y-76211269D01*
X112291312Y-76055505D01*
X112423770Y-75923047D01*
X112579534Y-75818969D01*
X112752604Y-75747281D01*
X112936333Y-75710735D01*
X113123667Y-75710735D01*
X113307396Y-75747281D01*
X113307396Y-75747281D01*
G37*
G36*
X136167396Y-73207281D02*
X136340466Y-73278969D01*
X136496230Y-73383047D01*
X136628688Y-73515505D01*
X136732766Y-73671269D01*
X136804454Y-73844339D01*
X136841000Y-74028068D01*
X136841000Y-74215402D01*
X136804454Y-74399131D01*
X136732766Y-74572201D01*
X136628688Y-74727965D01*
X136496230Y-74860423D01*
X136340466Y-74964501D01*
X136167396Y-75036189D01*
X135983667Y-75072735D01*
X135796333Y-75072735D01*
X135612604Y-75036189D01*
X135439534Y-74964501D01*
X135283770Y-74860423D01*
X135151312Y-74727965D01*
X135047234Y-74572201D01*
X134975546Y-74399131D01*
X134939000Y-74215402D01*
X134939000Y-74028068D01*
X134975546Y-73844339D01*
X135047234Y-73671269D01*
X135151312Y-73515505D01*
X135283770Y-73383047D01*
X135439534Y-73278969D01*
X135612604Y-73207281D01*
X135796333Y-73170735D01*
X135983667Y-73170735D01*
X136167396Y-73207281D01*
X136167396Y-73207281D01*
G37*
G36*
X113307396Y-73207281D02*
X113480466Y-73278969D01*
X113636230Y-73383047D01*
X113768688Y-73515505D01*
X113872766Y-73671269D01*
X113944454Y-73844339D01*
X113981000Y-74028068D01*
X113981000Y-74215402D01*
X113944454Y-74399131D01*
X113872766Y-74572201D01*
X113768688Y-74727965D01*
X113636230Y-74860423D01*
X113480466Y-74964501D01*
X113307396Y-75036189D01*
X113123667Y-75072735D01*
X112936333Y-75072735D01*
X112752604Y-75036189D01*
X112579534Y-74964501D01*
X112423770Y-74860423D01*
X112291312Y-74727965D01*
X112187234Y-74572201D01*
X112115546Y-74399131D01*
X112079000Y-74215402D01*
X112079000Y-74028068D01*
X112115546Y-73844339D01*
X112187234Y-73671269D01*
X112291312Y-73515505D01*
X112423770Y-73383047D01*
X112579534Y-73278969D01*
X112752604Y-73207281D01*
X112936333Y-73170735D01*
X113123667Y-73170735D01*
X113307396Y-73207281D01*
X113307396Y-73207281D01*
G37*
G36*
X108146719Y-71353520D02*
X108335880Y-71410901D01*
X108510212Y-71504083D01*
X108663015Y-71629485D01*
X108788417Y-71782288D01*
X108881599Y-71956619D01*
X108938980Y-72145780D01*
X108953500Y-72293206D01*
X108953500Y-72486793D01*
X108938980Y-72634219D01*
X108881599Y-72823380D01*
X108788417Y-72997712D01*
X108663015Y-73150515D01*
X108510212Y-73275917D01*
X108335881Y-73369099D01*
X108146720Y-73426480D01*
X107950000Y-73445855D01*
X107753281Y-73426480D01*
X107564120Y-73369099D01*
X107389788Y-73275917D01*
X107236985Y-73150515D01*
X107111583Y-72997712D01*
X107018401Y-72823381D01*
X106961020Y-72634220D01*
X106946500Y-72486794D01*
X106946500Y-72293207D01*
X106961020Y-72145781D01*
X107018401Y-71956620D01*
X107111583Y-71782288D01*
X107236985Y-71629485D01*
X107389788Y-71504083D01*
X107564119Y-71410901D01*
X107753280Y-71353520D01*
X107950000Y-71334145D01*
X108146719Y-71353520D01*
X108146719Y-71353520D01*
G37*
G36*
X105606719Y-71353520D02*
X105795880Y-71410901D01*
X105970212Y-71504083D01*
X106123015Y-71629485D01*
X106248417Y-71782288D01*
X106341599Y-71956619D01*
X106398980Y-72145780D01*
X106413500Y-72293206D01*
X106413500Y-72486793D01*
X106398980Y-72634219D01*
X106341599Y-72823380D01*
X106248417Y-72997712D01*
X106123015Y-73150515D01*
X105970212Y-73275917D01*
X105795881Y-73369099D01*
X105606720Y-73426480D01*
X105410000Y-73445855D01*
X105213281Y-73426480D01*
X105024120Y-73369099D01*
X104849788Y-73275917D01*
X104696985Y-73150515D01*
X104571583Y-72997712D01*
X104478401Y-72823381D01*
X104421020Y-72634220D01*
X104406500Y-72486794D01*
X104406500Y-72293207D01*
X104421020Y-72145781D01*
X104478401Y-71956620D01*
X104571583Y-71782288D01*
X104696985Y-71629485D01*
X104849788Y-71504083D01*
X105024119Y-71410901D01*
X105213280Y-71353520D01*
X105410000Y-71334145D01*
X105606719Y-71353520D01*
X105606719Y-71353520D01*
G37*
G36*
X103873500Y-73441000D02*
X101866500Y-73441000D01*
X101866500Y-71339000D01*
X103873500Y-71339000D01*
X103873500Y-73441000D01*
X103873500Y-73441000D01*
G37*
G36*
X152998252Y-67877818D02*
X152998254Y-67877819D01*
X152998255Y-67877819D01*
X153371513Y-68032427D01*
X153371514Y-68032428D01*
X153707439Y-68256886D01*
X153993114Y-68542561D01*
X153993116Y-68542564D01*
X154217573Y-68878487D01*
X154325479Y-69138996D01*
X154372182Y-69251748D01*
X154451000Y-69647993D01*
X154451000Y-70052007D01*
X154383276Y-70392481D01*
X154372181Y-70448255D01*
X154217573Y-70821513D01*
X154217572Y-70821514D01*
X153993114Y-71157439D01*
X153707439Y-71443114D01*
X153707436Y-71443116D01*
X153371513Y-71667573D01*
X152998255Y-71822181D01*
X152998254Y-71822181D01*
X152998252Y-71822182D01*
X152602007Y-71901000D01*
X152197993Y-71901000D01*
X151801748Y-71822182D01*
X151801746Y-71822181D01*
X151801745Y-71822181D01*
X151428487Y-71667573D01*
X151092564Y-71443116D01*
X151092561Y-71443114D01*
X150806886Y-71157439D01*
X150582428Y-70821514D01*
X150582427Y-70821513D01*
X150427819Y-70448255D01*
X150416725Y-70392481D01*
X150349000Y-70052007D01*
X150349000Y-69647993D01*
X150427818Y-69251748D01*
X150474521Y-69138996D01*
X150582427Y-68878487D01*
X150806884Y-68542564D01*
X150806886Y-68542561D01*
X151092561Y-68256886D01*
X151428486Y-68032428D01*
X151428487Y-68032427D01*
X151801745Y-67877819D01*
X151801746Y-67877819D01*
X151801748Y-67877818D01*
X152197993Y-67799000D01*
X152602007Y-67799000D01*
X152998252Y-67877818D01*
X152998252Y-67877818D01*
G37*
G36*
X97118252Y-67877818D02*
X97118254Y-67877819D01*
X97118255Y-67877819D01*
X97491513Y-68032427D01*
X97491514Y-68032428D01*
X97827439Y-68256886D01*
X98113114Y-68542561D01*
X98113116Y-68542564D01*
X98337573Y-68878487D01*
X98445479Y-69138996D01*
X98492182Y-69251748D01*
X98571000Y-69647993D01*
X98571000Y-70052007D01*
X98503276Y-70392481D01*
X98492181Y-70448255D01*
X98337573Y-70821513D01*
X98337572Y-70821514D01*
X98113114Y-71157439D01*
X97827439Y-71443114D01*
X97827436Y-71443116D01*
X97491513Y-71667573D01*
X97118255Y-71822181D01*
X97118254Y-71822181D01*
X97118252Y-71822182D01*
X96722007Y-71901000D01*
X96317993Y-71901000D01*
X95921748Y-71822182D01*
X95921746Y-71822181D01*
X95921745Y-71822181D01*
X95548487Y-71667573D01*
X95212564Y-71443116D01*
X95212561Y-71443114D01*
X94926886Y-71157439D01*
X94702428Y-70821514D01*
X94702427Y-70821513D01*
X94547819Y-70448255D01*
X94536725Y-70392481D01*
X94469000Y-70052007D01*
X94469000Y-69647993D01*
X94547818Y-69251748D01*
X94594521Y-69138996D01*
X94702427Y-68878487D01*
X94926884Y-68542564D01*
X94926886Y-68542561D01*
X95212561Y-68256886D01*
X95548486Y-68032428D01*
X95548487Y-68032427D01*
X95921745Y-67877819D01*
X95921746Y-67877819D01*
X95921748Y-67877818D01*
X96317993Y-67799000D01*
X96722007Y-67799000D01*
X97118252Y-67877818D01*
X97118252Y-67877818D01*
G37*
G36*
X147568228Y-69031703D02*
X147723100Y-69095853D01*
X147862481Y-69188985D01*
X147981015Y-69307519D01*
X148074147Y-69446900D01*
X148138297Y-69601772D01*
X148171000Y-69766184D01*
X148171000Y-69933816D01*
X148138297Y-70098228D01*
X148074147Y-70253100D01*
X147981015Y-70392481D01*
X147862481Y-70511015D01*
X147723100Y-70604147D01*
X147568228Y-70668297D01*
X147403816Y-70701000D01*
X147236184Y-70701000D01*
X147071772Y-70668297D01*
X146916900Y-70604147D01*
X146777519Y-70511015D01*
X146658985Y-70392481D01*
X146565853Y-70253100D01*
X146501703Y-70098228D01*
X146469000Y-69933816D01*
X146469000Y-69766184D01*
X146501703Y-69601772D01*
X146565853Y-69446900D01*
X146658985Y-69307519D01*
X146777519Y-69188985D01*
X146916900Y-69095853D01*
X147071772Y-69031703D01*
X147236184Y-68999000D01*
X147403816Y-68999000D01*
X147568228Y-69031703D01*
X147568228Y-69031703D01*
G37*
G36*
X143758228Y-69031703D02*
X143913100Y-69095853D01*
X144052481Y-69188985D01*
X144171015Y-69307519D01*
X144264147Y-69446900D01*
X144328297Y-69601772D01*
X144361000Y-69766184D01*
X144361000Y-69933816D01*
X144328297Y-70098228D01*
X144264147Y-70253100D01*
X144171015Y-70392481D01*
X144052481Y-70511015D01*
X143913100Y-70604147D01*
X143758228Y-70668297D01*
X143593816Y-70701000D01*
X143426184Y-70701000D01*
X143261772Y-70668297D01*
X143106900Y-70604147D01*
X142967519Y-70511015D01*
X142848985Y-70392481D01*
X142755853Y-70253100D01*
X142691703Y-70098228D01*
X142659000Y-69933816D01*
X142659000Y-69766184D01*
X142691703Y-69601772D01*
X142755853Y-69446900D01*
X142848985Y-69307519D01*
X142967519Y-69188985D01*
X143106900Y-69095853D01*
X143261772Y-69031703D01*
X143426184Y-68999000D01*
X143593816Y-68999000D01*
X143758228Y-69031703D01*
X143758228Y-69031703D01*
G37*
G36*
X139866821Y-69011313D02*
X139866824Y-69011314D01*
X139866825Y-69011314D01*
X140027239Y-69059975D01*
X140027241Y-69059976D01*
X140027244Y-69059977D01*
X140175078Y-69138995D01*
X140304659Y-69245341D01*
X140411005Y-69374922D01*
X140490023Y-69522756D01*
X140490024Y-69522759D01*
X140490025Y-69522761D01*
X140528014Y-69647994D01*
X140538687Y-69683179D01*
X140555117Y-69850000D01*
X140538687Y-70016821D01*
X140538686Y-70016824D01*
X140538686Y-70016825D01*
X140513993Y-70098228D01*
X140490023Y-70177244D01*
X140411005Y-70325078D01*
X140304659Y-70454659D01*
X140175078Y-70561005D01*
X140027244Y-70640023D01*
X140027241Y-70640024D01*
X140027239Y-70640025D01*
X139866825Y-70688686D01*
X139866824Y-70688686D01*
X139866821Y-70688687D01*
X139741804Y-70701000D01*
X139658196Y-70701000D01*
X139533179Y-70688687D01*
X139533176Y-70688686D01*
X139533175Y-70688686D01*
X139372761Y-70640025D01*
X139372759Y-70640024D01*
X139372756Y-70640023D01*
X139224922Y-70561005D01*
X139095341Y-70454659D01*
X138988995Y-70325078D01*
X138909977Y-70177244D01*
X138886008Y-70098228D01*
X138861314Y-70016825D01*
X138861314Y-70016824D01*
X138861313Y-70016821D01*
X138844883Y-69850000D01*
X138861313Y-69683179D01*
X138871986Y-69647994D01*
X138909975Y-69522761D01*
X138909976Y-69522759D01*
X138909977Y-69522756D01*
X138988995Y-69374922D01*
X139095341Y-69245341D01*
X139224922Y-69138995D01*
X139372756Y-69059977D01*
X139372759Y-69059976D01*
X139372761Y-69059975D01*
X139533175Y-69011314D01*
X139533176Y-69011314D01*
X139533179Y-69011313D01*
X139658196Y-68999000D01*
X139741804Y-68999000D01*
X139866821Y-69011313D01*
X139866821Y-69011313D01*
G37*
M02*
